<?xml version="1.0" standalone="no"?>
<!DOCTYPE svg PUBLIC "-//W3C//DTD SVG 1.1//EN" "http://www.w3.org/Graphics/SVG/1.1/DTD/svg11.dtd" >
<svg xmlns="http://www.w3.org/2000/svg">
<metadata>Generated by IcoMoon</metadata>
<defs>
<font id="olympus" horiz-adv-x="1024">
<font-face units-per-em="1024" ascent="960" descent="-64" />
<missing-glyph horiz-adv-x="1024" />
<glyph unicode="&#x20;" horiz-adv-x="512" d="" />
<glyph unicode="&#xe900;" glyph-name="Account-Icon" d="M666.016 935.584v-108.096c150.112-60.768 256-207.68 256-379.552 0-226.208-183.392-409.536-409.6-409.536s-409.6 183.36-409.6 409.536c0 171.84 105.984 318.784 256 379.552v108.448c-207.936-65.088-358.816-259.072-358.816-488.288 0-282.528 229.216-511.648 512-511.648s512 229.12 512 511.648c0 228.928-150.464 422.656-357.984 487.936zM563.616 960h-102.4v-102.4h102.4v102.4zM665.6 38.4v204.8h-307.2v-204.8h-102.4v204.8c0 56.512 45.888 102.4 102.4 102.4h307.2c56.512 0 102.4-45.888 102.4-102.4v-204.8h-102.4zM512 652.8c28.224 0 51.2-22.976 51.2-51.2s-22.976-51.2-51.2-51.2-51.2 22.976-51.2 51.2 22.976 51.2 51.2 51.2zM512 755.2c-84.8 0-153.6-68.768-153.6-153.6 0-84.8 68.8-153.6 153.6-153.6 84.832 0 153.6 68.8 153.6 153.6 0 84.832-68.768 153.6-153.6 153.6v0z" />
<glyph unicode="&#xe901;" glyph-name="Active-Members-Icon" d="M768 857.6c84.672 0 153.6-68.928 153.6-153.6s-68.928-153.6-153.6-153.6-153.6 68.928-153.6 153.6 68.928 153.6 153.6 153.6zM768 960c-141.376 0-256-114.624-256-256 0-141.408 114.624-256 256-256 141.408 0 256 114.592 256 256 0 141.376-114.592 256-256 256v0zM716.8 38.4h102.4v-102.4h-102.4v102.4zM409.6 140.8c0 56.512 45.92 102.4 102.4 102.4h512v102.4h-512c-113.088 0-204.8-91.712-204.8-204.8v-204.8h307.2v102.4h-204.8v102.4zM921.6 38.4h102.4v-102.4h-102.4v102.4zM0 857.6h409.6v-102.4h-409.6v102.4zM0 652.8h307.2v-102.4h-307.2v102.4zM0 448h204.8v-102.4h-204.8v102.4zM0 243.2h102.4v-102.4h-102.4v102.4z" />
<glyph unicode="&#xe902;" glyph-name="add-friend1" d="M554.828-43.562v90.047c124.978 50.669 213.266 173.089 213.266 316.204 0 188.443-152.776 341.219-341.219 341.219-188.475 0-341.219-152.776-341.219-341.219 0-143.148 88.256-265.535 213.266-316.204v-90.303c-173.217 54.22-298.899 215.825-298.899 406.795 0 235.434 190.938 426.244 426.468 426.244 235.562 0 426.564-190.81 426.564-426.244 0-190.682-125.394-352.127-298.227-406.539zM469.547 24.413v-85.505c-14.171-1.407-28.502-2.175-43.024-2.175-14.235 0-28.374 0.768-42.257 2.143v85.569c13.979-1.759 28.15-2.943 42.64-2.943 14.459 0 28.63 1.184 42.64 2.943zM213.641 447.97h85.313v-85.313h-85.313v85.313zM554.828 447.97h85.249v-85.313h-85.249v85.313zM554.060 277.28v-4.222c0-44.656-57.195-80.866-127.793-80.866-70.534 0-127.729 36.211-127.729 80.866v4.222h255.522zM384.234 21.47h85.313v-85.313h-85.313v85.313zM938.687 789.189v-85.313h-85.313v85.313h-85.313v85.313h85.313v85.313h85.313v-85.313h85.313v-85.313h-85.313z" />
<glyph unicode="&#xe903;" glyph-name="add-friend3" d="M917.279 789.366v-85.334h-85.334v85.334h-85.334v85.334h85.334v85.334h85.334v-85.334h85.334v-85.334h-85.334zM533.326-63.922v85.334h170.667v85.334c0 47.082-38.251 85.334-85.334 85.334h-426.62c-47.034 0-85.334-38.203-85.334-85.334v-85.334h170.667v-85.334h-255.953v170.667c0 94.26 76.407 170.667 170.667 170.667h426.62c94.26 0 170.667-76.407 170.667-170.667v-170.667h-255.953zM405.326 362.698c-117.778 0-213.286 95.46-213.286 213.286s95.508 213.286 213.286 213.286c117.826 0 213.286-95.508 213.286-213.286s-95.46-213.286-213.286-213.286zM405.326 703.984c-70.551 0-128-57.401-128-128s57.401-128 128-128c70.551 0 128 57.401 128 128s-57.401 128-128 128zM447.992-63.922h-85.334v85.334h85.334v-85.334z" />
<glyph unicode="&#xe904;" glyph-name="Addresses-Icon" d="M870.4 960h-716.8c-56.512 0-102.4-45.888-102.4-102.4v-819.2c0-56.512 45.888-102.4 102.4-102.4h716.8c56.512 0 102.4 45.888 102.4 102.4v102.4h-102.4v-102.4h-716.8v819.2h716.8v-409.6h102.4v409.6c0 56.512-45.888 102.4-102.4 102.4zM870.4 243.2h102.4v102.4h-102.4v-102.4zM768 345.6h-512v-102.4h512v102.4zM256 89.6h204.8v102.4h-204.8v-102.4zM256 755.2v-307.2h307.2v307.2h-307.2zM460.8 550.4h-102.4v102.4h102.4v-102.4zM614.4 89.6v102.4h-102.4v-102.4h102.4z" />
<glyph unicode="&#xe905;" glyph-name="Add-to-Conversation-Icon" horiz-adv-x="1120" d="M1018.204 957.102h-916.384c-56.256 0-101.82-45.628-101.82-101.82v-509.102c0-56.192 45.628-101.82 101.82-101.82 0 0 19.091 0 50.91 0v101.82h-50.91v509.102h916.384v-610.923c56.192 0 101.82 45.628 101.82 101.82v509.102c0 56.192-45.628 101.82-101.82 101.82zM661.833 244.359h50.91v101.82h-50.91v-101.82zM814.564 244.359h101.82v101.82h-101.82v-101.82zM560.012 346.18l-305.461-210.832v210.832h-101.82v-407.282l407.282 305.461h101.82v101.82zM712.743 651.641h-101.82v101.82h-101.82v-101.82h-101.82v-101.82h101.82v-101.82h101.82v101.82h101.82z" />
<glyph unicode="&#xe906;" glyph-name="Admin-Shield-Icon" d="M237.113 958.976c1.376 0 3.488 0.064 5.824 0.192h-7.68c0-0.16 0.704-0.192 1.856-0.192zM259.128 960c-3.392 0-10.56-0.512-16.192-0.832h18.016c0 0.192 0 0.416 0 0.608 0 0.16-0.704 0.192-1.856 0.192zM814.841 960h-148.928v-102.4h61.76c30.304-102.4 102.144-178.368 182.976-221.184-38.72-221.088-182.272-472.896-397.76-586.912-223.424 118.784-363.424 389.952-398.656 586.336 81.984 42.432 153.504 119.36 183.232 221.76h61.248v102.4h-148.928c-0.32-153.6-106.592-240.128-209.664-255.68 31.904-254.976 204.992-631.136 512.192-768.192v-0.096c0 0 0.512 0 0.512 0 0.064 0-0.512 0-0.512 0v0.096c307.2 137.056 479.808 513.216 511.68 768.192-103.008 15.552-208.832 102.080-209.152 255.68zM765.561 960c-1.12 0-1.888-0.064-1.888-0.192 0-0.192 0-0.416 0-0.608h18.752c-5.824 0.32-13.312 0.832-16.832 0.832zM790.393 959.168h-7.936c2.4-0.096 4.544-0.192 6.048-0.192 1.12 0 1.888 0.064 1.888 0.192zM461.113 960h102.4v-102.4h-102.4v102.4zM307.512 652.8h409.6v-102.4h-409.6v102.4zM409.913 448h204.8v-102.4h-204.8v102.4z" />
<glyph unicode="&#xe907;" glyph-name="Albums-Icon" d="M568.896 960v-455.104h455.104v455.104h-455.104zM910.208 618.656h-227.552v227.552h227.552v-227.552zM0-64h455.104v455.104h-455.104v-455.104zM113.792 277.344h227.552v-227.552h-227.552v227.552zM910.208 49.792h-227.552v227.552h113.792v113.792h-227.552v-455.104h455.104v227.552h-113.792v-113.792zM0 504.896h455.104v455.104h-455.104v-455.104zM113.792 846.208h227.552v-227.552h-227.552v227.552zM910.208 277.344h113.792v113.792h-113.792v-113.792z" />
<glyph unicode="&#xe908;" glyph-name="Back-to-Top-Arrow-Icon" horiz-adv-x="800" d="M718.684 504.165l-261.888 249.67v-249.222h-113.736v249.222l-261.888-249.67-79.705 75.963 398.493 379.847 398.525-379.847-79.769-75.963zM456.764 277.203h-113.736v113.736h113.736v-113.736zM456.764-63.974h-113.736v227.441h113.736v-227.441z" />
<glyph unicode="&#xe909;" glyph-name="Badge-Icon" d="M819.2 447.937c0 169.664-137.568 307.2-307.2 307.2s-307.2-137.536-307.2-307.2c0-169.632 137.568-307.136 307.2-307.136s307.2 137.536 307.2 307.136zM307.2 447.937c0 113.088 91.712 204.8 204.8 204.8s204.8-91.744 204.8-204.8-91.712-204.864-204.8-204.864-204.8 91.744-204.8 204.864zM512 959.937c-282.784 0-512-229.216-512-512 0-229.216 150.688-423.264 358.4-488.512v108.96c-150.080 60.768-256 207.712-256 379.552 0 226.208 183.392 409.6 409.6 409.6s409.6-183.392 409.6-409.6c0-171.84-105.92-318.784-256-379.552v-108.96c207.712 65.216 358.4 259.264 358.4 488.512 0 282.784-229.28 512-512 512zM460.8-63.999h102.4v102.336h-102.4v-102.336z" />
<glyph unicode="&#xe90a;" glyph-name="Billing-Details-Icon" d="M204.8 755.2h307.2v-102.4h-307.2v102.4zM204.8 345.6h307.2v-102.4h-307.2v102.4zM204.8 550.4h204.8v-102.4h-204.8v102.4zM716.8 448v409.6c0 56.512-45.888 102.4-102.4 102.4h-512c-56.512 0-102.4-45.888-102.4-102.4v-204.8h102.4v204.8h512v-716.8c0-37.472 10.816-72.128 28.416-102.4h-438.016c-56.48 0-102.4 45.92-102.4 102.4v204.8h-102.4v-204.8c0-113.088 91.712-204.8 204.8-204.8h614.4c113.088 0 204.8 91.712 204.8 204.8v307.2h-307.2zM921.6 140.8c0-56.48-45.92-102.4-102.4-102.4s-102.4 45.92-102.4 102.4v204.8h204.8v-204.8zM0 550.4h102.4v-102.4h-102.4v102.4z" />
<glyph unicode="&#xe90b;" glyph-name="Block-from-Chat-Icon" horiz-adv-x="1120" d="M1018.204 957.102h-916.384c-56.256 0-101.82-45.628-101.82-101.82v-509.102c0-56.192 45.628-101.82 101.82-101.82 0 0 19.091 0 50.91 0v101.82h-50.91v509.102h916.384v-610.923c56.192 0 101.82 45.628 101.82 101.82v509.102c0 56.192-45.628 101.82-101.82 101.82zM661.833 244.359h50.91v101.82h-50.91v-101.82zM814.564 244.359h101.82v101.82h-101.82v-101.82zM560.012 346.18l-305.461-210.832v210.832h-101.82v-407.282l407.282 305.461h101.82v101.82zM703.993 672.705l-71.974 71.974-71.974-71.974-71.974 71.974-72.038-71.974 71.974-71.974-71.974-72.038 72.038-71.974 71.974 71.974 71.974-71.974 71.974 71.974-71.974 72.038z" />
<glyph unicode="&#xe90c;" glyph-name="Blog-Icon" horiz-adv-x="928" d="M822.388 960h-716.8c-56.512 0-102.4-45.888-102.4-102.4v-921.6h716.8v204.8h204.8v102.4h-307.2v-204.8h-512v819.2h716.8v-307.2h102.4v307.2c0 56.512-45.888 102.4-102.4 102.4zM719.987 755.2h-512v-102.4h512v102.4zM719.987 550.464h-512v-102.464h512v102.464zM207.988 243.2h307.2v102.4h-307.2v-102.4zM822.388 345.6h102.4v102.4h-102.4v-102.4z" />
<glyph unicode="&#xe90d;" glyph-name="Blog-Main-Icon" d="M665.416 140.898v307.102h102.431v-307.102h-102.431zM460.669 140.898v307.102h102.431v-307.102h-102.431zM256.037 141.321v307.14h102.393v-307.14h-102.393zM307.253 806.394v-102.316h-102.393v102.316h102.393zM460.823 806.394v-102.316h-102.393v102.316h102.393zM614.393 806.394v-102.316h-102.393v102.316h102.393zM870.317 550.47h-716.673v102.393h716.673v-102.393zM767.963-63.734h-716.673v921.305c0 56.552 45.879 102.393 102.393 102.393h716.673c56.514 0 102.393-45.802 102.393-102.393v-307.14h-102.393v307.14h-716.673v-818.989l716.673-0.115v204.901h102.393v-307.294l-204.747 0.154zM870.317 448.115h102.393v-102.393h-102.393v102.393z" />
<glyph unicode="&#xe90e;" glyph-name="Bookmarks-Icon" d="M819.2 960h-153.6v-102.4h153.6v-716.8l-307.2 230.4-307.2-230.4v716.8h153.6v102.4h-153.6c-56.512 0-102.4-45.888-102.4-102.4v-921.6l409.6 307.2 409.6-307.2v921.6c0 56.512-45.888 102.4-102.4 102.4zM460.8 960h102.4v-102.4h-102.4v102.4z" />
<glyph unicode="&#xe90f;" glyph-name="Calendar-Icon" horiz-adv-x="832" d="M741.798-64h93.088v93.088h-93.088v-93.088zM741.798 866.848h-93.088v46.592c0 25.632-20.864 46.56-46.56 46.56-25.728 0-46.56-20.896-46.56-46.56v-46.592h-279.264v46.592c0 25.632-20.864 46.56-46.56 46.56-25.728 0-46.56-20.896-46.56-46.56v-46.592h-93.088c-51.392 0-93.088-41.664-93.088-93.088v-744.672c0-51.424 41.696-93.088 93.088-93.088h558.56v93.088h-558.56v744.672h93.088v-46.496c0-25.696 20.8-46.56 46.56-46.56 25.696 0 46.56 20.864 46.56 46.56v46.496h279.264v-46.496c0-25.696 20.8-46.56 46.56-46.56 25.696 0 46.56 20.864 46.56 46.56v46.496h93.088v-651.584h93.088v651.584c0 51.424-41.696 93.088-93.088 93.088zM229.798 122.176h93.088v93.088h-93.088v-93.088zM462.502 122.176v93.088h-93.088v-93.088h93.088zM509.063 122.176h93.088v93.088h-93.088v-93.088zM462.502 354.912h-232.736v-93.088h232.736v93.088zM602.15 354.912h-93.088v-93.088h93.088v93.088zM462.502 494.496h-232.736v-93.056h232.736v93.056zM602.15 494.496h-93.088v-93.056h93.088v93.056z" />
<glyph unicode="&#xe910;" glyph-name="Camera-Icon" horiz-adv-x="1376" d="M688.031 620c-126.653 0-229.344-102.626-229.344-229.344 0-126.653 102.69-229.344 229.344-229.344s229.344 102.69 229.344 229.344c0 126.718-102.69 229.344-229.344 229.344zM688.031 275.871c-63.311 0-114.688 51.377-114.688 114.688s51.377 114.688 114.688 114.688 114.688-51.377 114.688-114.688-51.377-114.688-114.688-114.688zM1146.751 849.343h-114.688c0 63.343-51.377 114.688-114.688 114.688h-458.687c-63.311 0-114.688-51.313-114.688-114.688h-114.688c-126.653 0-229.344-102.69-229.344-229.344v-458.687c0-126.718 102.69-229.344 229.344-229.344 0 0 223.313 0 512.484 0h3.548v114.688h-516.031c-63.311 0-114.688 51.377-114.688 114.688v458.687c0 63.311 51.377 114.688 114.688 114.688h229.344v114.688h458.687v-114.688h229.344c63.311 0 114.688-51.377 114.688-114.688v-458.687c0-63.311-51.377-114.688-114.688-114.688h-57.344v-114.688c36.187 0 57.344 0 57.344 0 126.653 0 229.344 102.626 229.344 229.344v458.687c0 126.653-102.69 229.344-229.344 229.344zM860.063-68.031h114.688v114.688h-114.688v-114.688z" />
<glyph unicode="&#xe911;" glyph-name="Chat---Messages-Icon" horiz-adv-x="1280" d="M787.731 718.782h-689.252c-44.522 0-98.478-51.889-98.478-98.414v-443.153c0-46.622 53.956-98.478 98.478-98.478v-147.653l393.849 147.588v98.575l-295.403-98.575v98.575h-98.478v443.088h689.252v-541.599c44.522 0 98.478 51.856 98.478 98.478v443.153c0 46.525-53.956 98.414-98.478 98.414zM590.806 78.704h98.478v98.478h-98.478v-98.478zM196.925 423.411h492.328v98.414h-492.328v-98.414zM196.925 275.661h295.403v98.478h-295.403v-98.478zM492.328 866.435h787.731c0 46.622-53.956 98.511-98.478 98.511h-689.252c-44.522 0-98.478-51.889-98.478-98.511v-49.336h98.478v49.336zM1181.58 423.411l-147.685 0.065v-98.575l-98.478 32.826v-106.653l196.925-73.794v147.588c25.169 0 49.239 0 49.239 0 44.522 0 98.478 51.889 98.478 98.511v147.685h-98.478v-147.685zM1181.58 669.575h98.478v98.478h-98.478v-98.478z" />
<glyph unicode="&#xe912;" glyph-name="Checked-Calendar-Icon" horiz-adv-x="832" d="M741.798-63.968h93.088v93.056h-93.088v-93.056zM741.798 866.912h-93.088v46.56c0 25.696-20.8 46.56-46.56 46.56s-46.56-20.864-46.56-46.56v-46.56h-279.264v46.56c0 25.696-20.864 46.56-46.56 46.56-25.728 0-46.56-20.864-46.56-46.56v-46.56h-93.088c-51.392 0-93.088-41.664-93.088-93.088v-744.736c0-51.392 41.696-93.056 93.088-93.056h558.56v93.056h-558.56v744.736h93.088v-46.56c0-25.696 20.8-46.56 46.56-46.56 25.696 0 46.56 20.864 46.56 46.56v46.56h279.264v-46.56c0-25.696 20.8-46.56 46.56-46.56s46.56 20.864 46.56 46.56v46.56h93.088v-651.648h93.088v651.648c0 51.424-41.696 93.088-93.088 93.088zM350.118 335.584l-65.824 65.824-65.824-65.824 131.68-131.616 263.264 263.296-65.824 65.824-197.504-197.504z" />
<glyph unicode="&#xe913;" glyph-name="Check-Icon" horiz-adv-x="1184" d="M355.276 211.237l-236.818 236.722-118.409-118.409 355.227-355.227 591.949 591.949-118.409 118.505-473.54-473.54zM1065.634 921.595l-118.409-118.409 118.409-118.409 118.409 118.409-118.409 118.409z" />
<glyph unicode="&#xe914;" glyph-name="Checkout-Icon" d="M921.6-64h-256v102.4h256v307.2h-153.6v102.4h153.6c56.512 0 102.4-45.888 102.4-102.4v-409.6h-102.4zM256 345.6h-153.6v-307.2h256v-102.4h-358.4v409.6c0 56.512 45.888 102.4 102.4 102.4h153.6v-102.4zM563.2-64h-102.4v102.4h102.4v-102.4zM204.8 243.2h614.4v-102.4h-614.4v102.4zM358.4 747.776l138.144-109.824 169.056 68.032v-462.784h-307.2v504.576zM256 960v-819.2h512v716.8l-254.4-102.4-257.6 204.8zM409.6 396.8h204.8v-102.4h-204.8v102.4zM409.6 550.4h204.8v-102.4h-204.8v102.4z" />
<glyph unicode="&#xe915;" glyph-name="Clear---Windy-Icon-Small" horiz-adv-x="1312" d="M1239.056 958.201c-40.306 0-72.895-32.589-72.895-72.895v-72.895h-801.75c-40.306 0-72.895-32.589-72.895-72.895 0-40.242 32.589-72.895 72.895-72.895h874.645c40.242 0 72.895 32.653 72.895 72.895v145.758c0 40.306-32.653 72.895-72.895 72.895zM291.548 448c0 40.306-32.653 72.895-72.895 72.895h-145.758c-40.306 0-72.895-32.589-72.895-72.895 0-40.242 32.589-72.895 72.895-72.895h145.758c40.242 0 72.895 32.653 72.895 72.895zM437.306 520.895v-145.758h145.758v145.758h-145.758zM1239.056 520.895h-437.306c-40.306 0-72.895-32.589-72.895-72.895 0-40.242 32.589-72.895 72.895-72.895h437.306c40.242 0 72.895 32.653 72.895 72.895 0 40.306-32.653 72.895-72.895 72.895zM1309.687 173.671c-0.957 3.858-1.881 7.589-3.508 11.161-11.001 26.18-36.958 44.547-67.123 44.547 0 0 0 0-0.064 0h-1020.339c-40.306 0-72.895-32.589-72.895-72.895 0-40.242 32.589-72.895 72.895-72.895h947.508v-72.895c0-40.242 32.589-72.895 72.895-72.895 40.242 0 72.895 32.653 72.895 72.895v145.758c0 5.038-0.51 9.981-1.531 14.732-0.064 0.861-0.51 1.69-0.733 2.487z" />
<glyph unicode="&#xe916;" glyph-name="Clock-Icon" d="M512.352 960c-229.216 0-423.232-150.848-488.288-358.816h108.448c60.768 150.080 207.68 256 379.552 256 226.208 0 409.536-183.392 409.536-409.6s-183.36-409.6-409.536-409.6c-171.84 0-318.784 105.92-379.552 256h-108.096c65.28-207.52 259.008-357.984 487.936-357.984 282.528 0 511.648 229.28 511.648 512 0 282.784-229.12 512-511.648 512zM102.4 498.784h-102.4v-102.4h102.4v102.4zM511.936 754.784c-28.256 0-51.2-22.944-51.2-51.2v-307.2h256c28.32 0 51.2 22.88 51.2 51.2s-22.88 51.2-51.2 51.2h-153.6v204.8c0 28.256-22.88 51.2-51.2 51.2z" />
<glyph unicode="&#xe917;" glyph-name="Close-Icon" d="M451.657 387.657h120.687v120.687h-120.687v-120.687zM1023.934 874.646l-85.322 85.322-341.323-341.323 85.322-85.322 341.323 341.323zM0.066 21.354l85.322-85.322 341.323 341.256-85.39 85.322-341.256-341.256zM597.322 277.321l341.323-341.256 85.322 85.322-341.323 341.256-85.322-85.322zM0.066 874.578l341.323-341.256 85.39 85.322-341.391 341.323-85.322-85.39z" />
<glyph unicode="&#xe918;" glyph-name="Cloudy-Icon" horiz-adv-x="1664" d="M807.066 31.998h100.851v-100.851h-100.851v100.851zM1204.72 390.726c0 149.306-129.601 270.54-291.344 275.321-77.237 89.739-196.695 147.562-331.141 147.562-224.12 0-406.86-160.225-420.363-362.314-96.167-46-161.872-138.064-161.872-244.342 0-152.342 134.802-275.806 301.164-275.806h405.051v100.851h-405.051c-110.445 0-200.313 78.497-200.313 174.955 0 63.734 40.056 122.494 104.566 153.376l53.171 25.455 3.941 58.824c10.046 150.404 150.501 268.215 319.738 268.215 100.334 0 193.174-40.993 254.679-112.512l29.008-33.692 44.449-1.324c108.475-3.23 193.465-79.854 193.465-174.535v-69.452l64.865-24.744c58.178-22.192 95.747-71.81 95.747-126.403 0-114.192-87.122-138.129-160.192-138.129h-95.553v-100.851h95.553c144.17 0 261.043 77.463 261.043 238.98-0.032 99.462-66.351 184.614-160.644 220.599zM1502.105 602.539c-13.503 202.090-196.243 362.314-420.363 362.314-134.446 0-253.904-57.823-331.141-147.562-59.923-1.777-115.42-19.576-161.549-48.875 48.1-3.004 116.518-14.763 182.837-51.395l26.133 0.743 29.008 33.692c61.506 71.52 154.378 112.512 254.712 112.512 169.237 0 309.692-117.81 319.738-268.215l3.909-58.824 53.171-25.423c64.51-30.85 104.598-89.609 104.598-153.376 0-96.458-89.868-174.955-200.313-174.955h-47.131c3.424-24.486 2.197-58.889-15.183-100.851h62.313c166.33 0 301.164 123.496 301.164 275.806 0 106.31-65.737 198.342-161.904 244.342z" />
<glyph unicode="&#xe919;" glyph-name="Cloudy-Icon-Small" horiz-adv-x="1600" d="M872.751 84.346h145.443v-145.443h-145.443v145.443zM1411.788 469.223c0 172.234-151.87 312.14-341.381 317.613-90.46 103.569-230.462 170.261-388.091 170.261-262.63 0-476.801-184.866-492.583-418.032-112.733-53.169-189.734-159.284-189.734-281.88 0-175.797 157.979-318.249 352.963-318.249h374.345v145.443h-374.345c-114.388 0-207.489 77.446-207.489 172.806 0 61.823 40.728 119.415 106.242 150.247l77.319 36.496 5.823 85.305c10.755 158.329 163.42 282.389 347.49 282.389 110.124 0 211.561-43.941 278.539-120.497l41.81-47.855 63.478-1.814c110.41-3.214 200.139-80.437 200.139-172.234v-100.737l94.247-35.414c57.082-21.446 93.96-67.933 93.96-118.397 0-32.232 0-130.329-160.429-130.329h-130.392v-145.443h130.392c168.956 0 305.903 89.378 305.903 275.771 0 114.706-77.669 213.025-188.207 254.548z" />
<glyph unicode="&#xe91a;" glyph-name="Comment-Icon" d="M204.8 755.2h614.4v-102.4h-614.4v102.4zM204.8 550.4h409.6v-102.4h-409.6v102.4zM921.6 960h-819.2c-56.576 0-102.4-45.888-102.4-102.4v-512c0-56.512 45.888-102.4 102.4-102.4 0 0 19.2 0 51.2 0v-307.2l409.6 307.2h51.2v102.4h-51.2l-307.2-212.032v212.032h-153.6v512h819.2v-614.4c56.512 0 102.4 45.888 102.4 102.4v512c0 56.512-45.888 102.4-102.4 102.4zM716.8 345.6h102.4v-102.4h-102.4v102.4z" />
<glyph unicode="&#xe91b;" glyph-name="Computer-Icon" horiz-adv-x="1120" d="M1018.204 244.359h-916.384v610.923h1018.204c0 56.192-45.628 101.82-101.82 101.82h-916.384c-56.192 0-101.82-45.565-101.82-101.82v-610.923c0-56.192 45.628-101.884 101.82-101.884h305.461v-101.757h-152.731v-101.82h610.923v101.82h-152.731v101.757h305.461c56.192 0 101.82 45.628 101.82 101.884v305.398h-101.82v-305.398zM610.923 40.718h-101.82v101.757h101.82v-101.757zM1018.204 651.641h101.82v101.757h-101.82v-101.757zM407.282 498.847v101.82h-101.82v-101.82h101.82zM610.923 498.847v101.82h-101.82v-101.82h101.82zM814.564 498.847v101.82h-101.82v-101.82h101.82z" />
<glyph unicode="&#xe91c;" glyph-name="Cupcake-Icon" horiz-adv-x="864" d="M176.606-64h127.488v85.344h-53.472l-29.856 209.312 414.688 2.016 9.984 2.016h-511.328zM645.438 234.656l-30.816-213.344h-54.528v-85.344h128.512l42.848 298.656zM805.438 546.944c-29.472 86.24-114.656 151.776-245.344 156.512v-85.536c84.448-3.872 144.416-39.584 164.576-98.56 5.024-14.624 13.92-27.648 25.76-37.632 14.432-12.128 23.008-32.896 23.008-55.584 0-20.768-7.424-40.032-20.32-52.736-12.064-11.904-20.352-27.168-23.68-43.776-6.24-30.624-36.256-52.832-70.496-52.864-12 1.504-41.216 21.408-50.784 27.936-14.304 9.76-31.104 14.848-48.096 14.848-5.536 0-11.104-0.544-16.608-1.632-22.4-4.448-42.144-17.696-54.688-36.832-19.36-29.408-40.544-46.976-56.704-46.976-19.072 0-41.76 24.224-56.672 46.944-12.544 19.104-32.256 32.416-54.688 36.864-5.536 1.056-11.104 1.568-16.64 1.568-16.992 0-33.76-5.088-48-14.816-9.632-6.528-38.912-26.496-49.824-27.936-35.232 0-65.28 22.24-71.456 52.832-3.36 16.64-11.616 31.872-23.68 43.776-12.96 12.8-20.352 32-20.352 52.768 0 22.688 8.576 43.488 22.944 55.552 11.872 9.984 20.768 23.008 25.76 37.664 18.816 54.912 81.44 92.32 164.608 98.528v85.6c-125.568-7.2-216.032-70.784-245.344-156.512-32.16-27.104-53.344-70.944-53.344-120.832 0-45.696 17.952-86.112 45.664-113.44 13.952-69.024 77.984-121.248 155.136-121.248 34.336 0 71.936 25.088 97.888 42.752 27.872-42.464 71.264-85.408 128-85.408s100.096 42.976 128 85.408c25.888-17.664 63.488-42.752 97.888-42.752 77.152 0 141.184 52.224 155.136 121.248 27.68 27.392 45.664 67.744 45.664 113.44 0 49.888-21.152 93.728-53.344 120.832zM389.438 21.344h85.344v-85.344h-85.344v85.344zM389.438 533.376h85.344v256h-85.344v-256zM432.094 960c-23.584 0-42.656-19.072-42.656-42.624v-42.656c0-23.552 19.072-42.656 42.656-42.656s42.656 19.104 42.656 42.656v42.656c0 23.552-19.072 42.624-42.656 42.624z" />
<glyph unicode="&#xe91d;" glyph-name="Day-Calendar-Icon" horiz-adv-x="832" d="M741.798-64h93.088v93.056h-93.088v-93.056zM369.414 261.824h93.088v93.056h-93.088v-93.056zM741.798 866.848h-93.088v46.592c0 25.696-20.864 46.56-46.56 46.56-25.728 0-46.56-20.864-46.56-46.56v-46.56h-279.264v46.56c0 25.696-20.864 46.56-46.56 46.56-25.728 0-46.56-20.864-46.56-46.56v-46.56h-93.088c-51.392 0-93.088-41.664-93.088-93.088v-744.736c0-51.424 41.696-93.088 93.088-93.088h558.56v93.056h-558.56v744.768h93.088v-46.56c0-25.696 20.8-46.56 46.56-46.56 25.696 0 46.56 20.864 46.56 46.56v46.56h279.264v-46.56c0-25.696 20.8-46.56 46.56-46.56 25.696 0 46.56 20.864 46.56 46.56v46.56h93.088v-651.648h93.088v651.648c0 51.392-41.696 93.056-93.088 93.056zM229.798 122.080h372.352v372.352h-372.352v-372.352zM322.887 401.376h186.176v-186.176h-186.176v186.176z" />
<glyph unicode="&#xe91e;" glyph-name="Downloads-Icon" d="M102.4 499.2h-102.4v-512h358.4v102.4h-256v409.6zM921.6 499.2v-409.6h-256v-102.4h358.4v512h-102.4zM460.8-12.8h102.4v102.4h-102.4v-102.4zM767.488 422.304l-85.152 76.64-119.36-107.36v517.216h-102.048v-517.28l-119.36 107.424-85.184-76.64 255.552-229.888 255.552 229.888z" />
<glyph unicode="&#xe91f;" glyph-name="Dropdown-Arrow-Icon" d="M1007.633 699.864l-33.543 33.776c-10.556 10.548-24.601 16.359-39.612 16.359-15.002 0-29.064-5.811-39.62-16.359l-382.629-382.646-383.071 383.071c-10.54 10.548-24.601 16.351-39.603 16.351s-29.072-5.803-39.62-16.351l-33.551-33.567c-21.846-21.829-21.846-57.386 0-79.215l456.092-457.732c10.54-10.54 24.585-17.966 39.72-17.966h0.175c15.010 0 29.055 7.434 39.595 17.966l455.667 456.491c10.556 10.54 16.351 25.009 16.367 40.011 0 15.010-5.811 29.28-16.367 39.811z" />
<glyph unicode="&#xe920;" glyph-name="Edit-Icon" d="M921.6-64h-256v102.4h256v460.8h102.4v-460.8c0-56.512-45.888-102.4-102.4-102.4zM460.8-64v102.4h102.4v-102.4h-102.4zM102.4 38.4h256v-102.4h-256c-56.512 0-102.4 45.888-102.4 102.4v819.2c0 56.512 45.888 102.4 102.4 102.4h460.8v-102.4h-460.8v-819.2zM307.2 243.2l264.192 37.568 452.608 452.672-226.56 226.56-452.608-452.608-37.632-264.192zM797.44 808.96l75.52-75.52-75.52-75.52-75.52 75.52 75.52 75.52zM646.4 657.92l75.52-75.52-200.8-200.768-88.128-12.704 12.608 88.16 200.8 200.8z" />
<glyph unicode="&#xe921;" glyph-name="follow-icon" d="M1018.665 578.253c-8.791 26.406-31.457 45.715-58.727 49.935l-265.629 40.92-115.439 248.174c-12.116 26.087-38.171 42.71-66.815 42.71-28.548 0-54.571-16.688-66.687-42.71l-115.503-248.174-265.629-40.92c-27.301-4.188-49.967-23.529-58.759-49.935-8.791-26.438-2.142-55.594 17.135-75.446l194.626-201.339-45.172-279.119c-4.54-28.133 7.225-56.329 30.274-72.793 12.692-8.951 27.557-13.555 42.455-13.555 12.276 0 24.488 3.133 35.645 9.303l231.55 129.058 152.427-84.909v117.070l-152.427 84.973-229.664-128.035 44.053 272.278-35.613 36.892-157.35 162.721 266.076 40.984 23.113 49.616 89.449 192.26 112.53-241.876 266.172-41.016-193.027-199.581 23.433-144.819h103.643l-17.903 110.548 194.722 201.339c19.181 19.885 25.767 49.040 16.975 75.51zM712.148 124.048h95.196l-0.351-104.223-94.845 4.339zM950.786 773.302v-82.461h-81.829v82.461h-81.828v82.562h81.828v82.461h81.829v-82.461h81.828v-82.562z" />
<glyph unicode="&#xe922;" glyph-name="Forum-Icon" horiz-adv-x="864" d="M90.656 704.032v-85.344h682.656v85.344h-682.656zM218.656 832.032h-85.344v-85.344h85.344v85.344zM346.656 832.032h-85.344v-85.344h85.344v85.344zM474.656 832.032h-85.344v-85.344h85.344v85.344zM218.656 448.032h85.344v85.344h-85.344v-85.344zM559.968 448.032h85.344v85.344h-85.344v-85.344zM304.32 358.368c0-44.672 57.216-80.864 127.84-80.864s127.84 36.224 127.84 80.864v4.256h-255.648v-4.256zM773.313 277.376v0-85.376h-275.488l-18.048-8.992-217.824-108.928v117.92h-171.296v682.656h682.656v-341.28h85.344v341.28c0 47.104-38.24 85.344-85.344 85.344h-682.656c-47.136 0-85.344-38.24-85.344-85.344v-682.656c0-47.104 38.24-85.344 85.344-85.344h85.984v-170.656l341.344 170.656h255.36c47.104 0 85.344 38.24 85.344 85.344v85.376h-85.344zM773.313 448h85.344v-85.344h-85.344v85.344z" />
<glyph unicode="&#xe923;" glyph-name="Forums-Icon" d="M921.518 960.037h-819.147c-56.522 0-102.408-45.886-102.408-102.408v-819.147c0-56.522 45.886-102.408 102.408-102.408h819.147c56.522 0 102.408 45.886 102.408 102.408v102.446h-102.408v-102.446h-819.147v512.039h819.147v-102.408h102.408v409.516c0 56.522-45.886 102.408-102.408 102.408zM921.518 652.929h-819.147v204.739h819.147v-204.739zM921.518 243.298h102.408v102.408h-102.408v-102.408zM255.925 806.521h-102.408v-102.408h102.408v102.408zM409.517 806.521h-102.408v-102.408h102.408v102.408zM563.11 806.521h-102.408v-102.408h102.408v102.408zM358.333 448.113h-102.408v-102.408h102.408v102.408zM767.925 345.744v102.408h-102.408v-102.408h102.408zM511.195 141.159c84.745 0 153.439 43.467 153.439 97.070v5.069h-306.763v-5.222c0-53.45 68.656-96.917 153.324-96.917z" />
<glyph unicode="&#xe924;" glyph-name="Friendships-Requests-Icon" d="M768.416 890.784v-123.296c93.6-75.072 153.6-190.144 153.6-319.424 0-171.84-105.888-318.72-256-379.552v-108.096c207.52 65.28 357.984 258.976 357.984 488 0 189.088-102.912 353.792-255.584 442.368zM102.816 448c0 129.28 60.064 244.384 153.6 319.488v123.84c-153.088-88.48-256.416-253.504-256.416-442.944 0-229.312 150.88-423.328 358.816-488.384v108.48c-150.016 60.768-256 207.712-256 379.488zM256.416 448.064h102.4v102.336h-102.4v-102.336zM666.016 448.064h102.4v102.336h-102.4v-102.336zM358.336 340.384c0-53.6 68.672-97.024 153.408-97.024 84.672 0 153.408 43.424 153.408 97.024v5.12h-306.784v-5.12zM461.216 652.8h102.4v102.4h102.4v102.4h-102.4v102.4h-102.4v-102.4h-102.4v-102.4h102.4v-102.4zM460.8 38.4h102.4v-102.4h-102.4v102.4z" />
<glyph unicode="&#xe925;" glyph-name="Fullscreen-Icon" d="M640 960v-128h160l-224.832-224.768 96.064-96 224.768 224.768v-160h128v384h-384zM128 704h-128v-128h128v128zM384 832v128h-384v-128h128v-96l224.768-224.768 96.064 96-224.832 224.768h160zM896 192h128v128h-128v-128zM896 160l-224.768 224.832-96.064-96 224.832-224.832h-160v-128h384v128h-128v96zM352.768 384.832l-224.768-224.832v160h-128v-384h384v128h-160l224.832 224.832-96.064 96z" />
<glyph unicode="&#xe926;" glyph-name="Groups-Icon" d="M358.407 857.668c84.668 0 153.593-68.925 153.593-153.593s-68.925-153.593-153.593-153.593-153.593 68.925-153.593 153.593 68.925 153.593 153.593 153.593zM358.407 960.037c-141.343 0-256-114.618-256-256 0-141.42 114.618-256 256-256 141.42 0 256 114.58 256 256 0 141.343-114.58 256-256 256v0zM307.223 38.482h102.408v-102.408h-102.408v102.408zM512 345.667h-307.185c-113.082 0-204.777-91.695-204.777-204.777v-204.777h204.777v102.408h-102.408v102.408c0 56.522 45.924 102.408 102.408 102.408h307.185c56.522 0 102.408-45.886 102.408-102.408v-102.408h-102.408v-102.408h204.777v204.777c0 113.082-91.695 204.777-204.777 204.777zM716.777 954.892v-106.632c59.44-21.234 102.408-77.526 102.408-144.185s-42.968-122.912-102.408-144.185v-106.632c116.845 23.692 204.777 126.983 204.777 250.817s-87.97 227.125-204.777 250.817zM819.185 345.667v-102.408c56.522 0 102.408-45.886 102.408-102.408v-102.408h-102.408v-102.408h204.777v204.777c0 113.082-91.695 204.777-204.777 204.777z" />
<glyph unicode="&#xe927;" glyph-name="Happy-Face-Icon" d="M512 960c-282.749 0-511.938-229.092-511.938-511.586 0-229.284 150.862-423.212 358.772-488.324v108.467c-150.062 60.761-255.969 207.655-255.969 379.442 0 226.212 183.37 409.614 409.55 409.614s409.55-183.37 409.55-409.614c0-171.819-105.971-318.681-255.969-379.442v-108.083c207.495 65.272 357.94 258.976 357.94 487.94 0 282.494-229.252 511.586-511.938 511.586zM358.771 550.45h-102.388v-102.451h102.388v102.451zM665.997 550.45v-102.451h102.388v102.451h-102.388zM358.355 340.396c0-53.593 68.664-97.012 153.389-97.012s153.389 43.419 153.389 97.012v5.119h-306.747v-5.119zM461.222-63.939h102.388v102.388h-102.388v-102.388z" />
<glyph unicode="&#xe928;" glyph-name="Happy-Faces-Icon" horiz-adv-x="1056" d="M422.255 785.869c-233.219 0-422.257-188.912-422.257-422.004 0-189.102 124.432-349.1 295.925-402.717v89.405c-123.767 50.165-211.145 171.304-211.145 313.059 0 186.505 151.256 337.762 337.825 337.762s337.825-151.256 337.825-337.762c0-141.755-87.378-262.957-211.145-313.059v-89.151c171.145 53.839 295.26 213.615 295.26 402.464 0 233.092-189.039 422.004-422.257 422.004zM295.922 448.012h-84.464v-84.401h84.464v84.401zM549.283 448.012v-84.401h84.464v84.401h-84.464zM295.542 274.777c0-44.18 56.626-80.030 126.522-80.030s126.522 35.851 126.522 80.030v4.275h-253.012v-4.275zM380.387-58.709h84.464v84.496h-84.464v-84.496zM437.329 870.302h280.85c0 0 47.347-13.206 69.136-22.074l75.913 56.911c-55.328 31.448-119.111 49.564-187.265 49.564-90.45 0-173.394-31.702-238.634-84.401zM1028.515 716.1l-67.489-67.426c6.176-23.784 10.483-48.234 10.483-73.981 0-55.613-15.455-107.425-42.216-151.668v-131.114c77.655 69.516 126.68 170.385 126.68 282.846 0.032 50.039-9.849 97.639-27.458 141.375zM971.541 828.054h-84.464v-84.464h84.464v84.464z" />
<glyph unicode="&#xe929;" glyph-name="Happy-Sticker-Icon" d="M819.2 959.936h-153.6v-102.4h153.6c56.512 0 102.4-45.824 102.4-102.336v-409.6h-102.4c-113.088 0-204.8-91.744-204.8-204.864v-102.4h-409.6c-56.512 0-102.4 45.888-102.4 102.4v614.464c0 56.512 45.888 102.336 102.4 102.336h153.6v102.4h-153.6c-113.088 0-204.8-91.648-204.8-204.736v-614.464c0-113.088 91.712-204.736 204.8-204.736h563.2c103.488 103.936 160 152.48 256 255.936v563.264c0 113.056-91.712 204.736-204.8 204.736zM716.8 38.336v102.4c0 56.512 45.888 102.4 102.4 102.4h102.4c-57.6-51.776-127.424-126.368-204.8-204.8zM358.4 550.4h-102.4v-102.4h102.4v102.4zM511.296 243.36c84.672 0 153.344 43.456 153.344 97.088v5.056h-306.752v-5.056c0-53.6 68.704-97.088 153.408-97.088zM563.2 960h-102.4v-102.4h102.4v102.4zM767.936 550.4h-102.336v-102.4h102.336v102.4z" />
<glyph unicode="&#xe92a;" glyph-name="Headphones-Icon" horiz-adv-x="1152" d="M317.269 390.327c15.909 0 28.804-12.896 28.804-28.804v-288.075c0-15.844-12.896-28.675-28.804-28.675s-28.804 12.831-28.804 28.675v288.075c0 15.909 12.896 28.804 28.804 28.804zM317.269 505.544c-79.447 0-143.989-64.64-143.989-143.989v-288.075c0-79.317 64.575-143.892 143.989-143.892s143.989 64.575 143.989 143.892v288.075c0 79.382-64.575 143.989-143.989 143.989v0zM225.898 104.649c-61.011 2.43-109.774 52.23-109.774 113.889s48.86 111.459 109.774 113.889v115.217c-125.099-2.527-225.898-104.266-225.898-230.013s100.799-227.454 225.898-229.948v116.999zM834.709 390.327c15.909 0 28.804-12.896 28.804-28.804v-288.075c0-15.844-12.896-28.675-28.804-28.675s-28.804 12.831-28.804 28.675v288.075c0 15.909 12.896 28.804 28.804 28.804zM834.709 505.544c-79.447 0-143.989-64.64-143.989-143.989v-288.075c0-79.317 64.575-143.892 143.989-143.892 79.382 0 143.957 64.575 143.957 143.892v288.075c0 79.382-64.575 143.989-143.957 143.989v0zM926.112 104.649c61.011 2.43 109.774 52.23 109.774 113.889s-48.86 111.459-109.774 113.889v115.217c125.099-2.527 225.898-104.266 225.898-230.013s-100.799-227.454-225.898-229.948v116.999zM142.693 661.003c-17.464-48.601-27.476-100.799-27.476-155.394v-151.83h115.217v151.83c0 30.522 4.374 59.974 11.794 88.13l-99.535 67.264zM576.021 966.413c-54.66 0-106.858-10.012-155.524-27.476l67.037-99.6c28.351 7.485 57.835 11.859 88.487 11.859 190.614 0 345.619-155.005 345.619-345.619v-151.83h115.217v151.83c0 254.476-206.328 460.804-460.804 460.804zM231.601 852.427h115.217v-115.217h-115.217v115.217z" />
<glyph unicode="&#xe92b;" glyph-name="Heart-Icon" horiz-adv-x="1152" d="M748.815 275.080h115.217v-115.217h-115.217v115.217zM1053.415 869.181c-65.255 65.158-138.125 97.397-227 97.397-84.89 0-179.662-67.685-250.393-139.453-73.031 71.833-164.79 139.161-252.629 139.161-85.927 0-161.68-25.694-224.764-88.713-131.45-130.996-131.45-343.416 0-474.574 37.488-37.488 401.835-442.498 401.835-442.498 20.737-20.672 47.986-31.040 75.17-31.040s54.369 10.368 75.105 31.040l60.363 65.19-81.747 81.229-53.623-57.9c-67.329 74.878-359.487 399.307-395.711 435.531-41.829 41.635-64.802 97.008-64.802 155.88 0 58.743 22.972 113.986 64.802 155.653 38.136 38.071 82.298 55.017 143.374 55.017 15.034 0 71.768-7.647 171.821-106.048l82.071-80.743 80.743 82.039c71.541 72.643 136.116 105.108 168.355 105.108 57.317 0 100.864-19.052 145.674-63.83 41.765-41.603 64.737-96.878 64.737-155.653 0-58.807-22.972-114.116-63.7-154.714-2.819-2.754-3.175-3.046-61.562-66.13l-5.055-5.411 81.747-81.326 7.776 8.424c0 0 56.442 60.946 57.479 61.918 131.385 130.996 131.385 343.546-0.065 474.477z" />
<glyph unicode="&#xe92c;" glyph-name="Home-Icon" d="M819.2-64h-204.8v307.2h-204.8v-307.2h-204.8c-56.512 0-102.4 45.888-102.4 102.4v51.2h102.4v-51.2h102.4v307.2h409.6v-307.2h102.4v512l102.4-51.2v-460.8c0-56.512-45.888-102.4-102.4-102.4zM102.4 294.4h102.4v-102.4h-102.4v102.4zM102.4 499.2l102.4 51.2v-153.6h-102.4v102.4zM512 815.168l367.2-367.168h144.8l-512 512-512-512h144.832z" />
<glyph unicode="&#xe92d;" glyph-name="Info-Icon" d="M512 960c-282.784 0-512-229.056-512-511.648 0-229.28 150.848-423.232 358.816-488.352v108.448c-150.080 60.832-256 207.68-256 379.488 0 226.208 183.392 409.536 409.6 409.536s409.6-183.36 409.6-409.536c0-171.84-105.984-318.784-256-379.488v-108.032c207.52 65.28 357.984 258.976 357.984 487.936 0 282.56-229.312 511.648-512 511.648zM461.216 191.936h102.4v307.2h-102.4v-307.2zM461.216 601.536h102.4v102.4h-102.4v-102.4zM461.216-64h102.4v102.4h-102.4v-102.4z" />
<glyph unicode="&#xe92e;" glyph-name="instagram-grey" d="M726.56 960h-429.088c-164.032 0-297.472-133.44-297.472-297.472v-429.088c0-164.032 133.44-297.44 297.472-297.44h429.088c164.032 0 297.44 133.44 297.44 297.44v429.088c0 164.032-133.44 297.472-297.44 297.472zM944 233.472c-0.127-120.044-97.398-217.326-217.426-217.472h-429.102c-120.037 0.127-217.312 97.402-217.44 217.427v429.101c0.127 120.037 97.402 217.312 217.427 217.44h429.101c120.044-0.127 217.326-97.398 217.472-217.426v-429.102zM512 724c-152.192 0-276-123.808-276-276s123.808-276 276-276 276 123.808 276 276-123.808 276-276 276zM512 252c-108.064 0-196 87.936-196 196s87.936 196 196 196 196-87.936 196-196-87.936-196-196-196zM832 728c0-22.091-17.909-40-40-40s-40 17.909-40 40v0c0 22.091 17.909 40 40 40s40-17.909 40-40v0z" />
<glyph unicode="&#xe92f;" glyph-name="upload" d="M877.717 630.863h-182.858c-20.199 0-36.572-16.374-36.572-36.572s16.374-36.572 36.572-36.572h182.858c20.199 0 36.572-16.374 36.572-36.572v-475.433c0-20.199-16.374-36.572-36.572-36.572h-731.433c-20.199 0-36.572 16.374-36.572 36.572v475.435c0 20.199 16.374 36.572 36.572 36.572h182.858c20.199 0 36.572 16.374 36.572 36.572s-16.374 36.572-36.572 36.572h-182.858c-60.594 0-109.715-49.121-109.715-109.715v-475.433c0-60.594 49.121-109.715 109.715-109.715h731.433c60.594 0 109.715 49.121 109.715 109.715v475.431c0 60.594-49.121 109.715-109.715 109.715zM720.715 766.434l-182.858 182.858c-14.28 14.278-37.432 14.278-51.712 0l-182.86-182.858c-14.032-14.529-13.629-37.68 0.9-51.712 14.173-13.689 36.641-13.689 50.814 0l120.432 120.432v-606.581c0-20.199 16.374-36.572 36.572-36.572s36.572 16.374 36.572 36.572v606.579l120.432-120.432c14.529-14.032 37.68-13.629 51.712 0.9 13.684 14.173 13.684 36.641-0.004 50.814z" />
<glyph unicode="&#xe931;" glyph-name="Invitations---Send-Invites-Icon" d="M921.6 38.4h-256v102.4h256v614.4h-819.2v-614.4h256v-102.4h-256c-56.512 0-102.4 45.888-102.4 102.4v614.4c0 56.512 45.888 102.4 102.4 102.4h819.2c56.512 0 102.4-45.888 102.4-102.4v-614.4c0-56.512-45.888-102.4-102.4-102.4zM563.2 38.4h-102.4v102.4h102.4v-102.4zM961.6 681.568l-441.344-223.424-8.192-8.256-8.192 8.256-14.656 7.488-406.016 206.4-83.2-19.2c0-24.992 9.536-50.016 28.608-69.12l414.368-209.504c19.040-19.008 44.096-28.576 69.056-28.576s50.016 9.568 69.056 28.608l414.304 209.504c19.040 19.040 28.576 44.096 28.576 69.056l-62.4 28.768z" />
<glyph unicode="&#xe932;" glyph-name="Join-The-Group-Icon" d="M298.656 704c70.56 0 128-57.44 128-128s-57.44-128-128-128-128 57.44-128 128 57.44 128 128 128zM298.656 789.344c-117.792 0-213.344-95.52-213.344-213.344 0-117.856 95.52-213.344 213.344-213.344 117.856 0 213.344 95.488 213.344 213.344 0 117.792-95.488 213.344-213.344 213.344v0zM256 21.344h85.344v-85.344h-85.344v85.344zM426.656 277.344h-256c-94.24 0-170.656-76.416-170.656-170.656v-170.656h170.656v85.344h-85.344v85.344c0 47.104 38.272 85.344 85.344 85.344h256c47.104 0 85.344-38.24 85.344-85.344v-85.344h-85.344v-85.344h170.656v170.656c0 94.24-76.416 170.656-170.656 170.656zM597.344 785.024v-88.864c49.536-17.696 85.344-64.608 85.344-120.16s-35.808-102.432-85.344-120.16v-88.864c97.376 19.744 170.656 105.76 170.656 208.992s-73.312 189.312-170.656 209.056zM682.656 277.344v-85.344c47.104 0 85.344-38.24 85.344-85.344v-85.344h-85.344v-85.344h170.656v170.656c0 94.24-76.416 170.656-170.656 170.656zM1024 874.656h-85.344v85.344h-85.344v-85.344h-85.344v-85.344h85.344v-85.344h85.344v85.344h85.344z" />
<glyph unicode="&#xe933;" glyph-name="Leave-The-Group-Icon" d="M298.656 746.687c70.56 0 128-57.44 128-128s-57.44-128-128-128-128 57.44-128 128 57.44 128 128 128zM298.656 832.031c-117.792 0-213.344-95.52-213.344-213.344 0-117.856 95.52-213.344 213.344-213.344 117.856 0 213.344 95.488 213.344 213.344 0 117.792-95.488 213.344-213.344 213.344v0zM256 64.032h85.344v-85.344h-85.344v85.344zM426.656 320.032h-256c-94.24 0-170.656-76.416-170.656-170.656v-170.656h170.656v85.344h-85.344v85.344c0 47.104 38.272 85.344 85.344 85.344h256c47.104 0 85.344-38.24 85.344-85.344v-85.344h-85.344v-85.344h170.656v170.656c0 94.24-76.416 170.656-170.656 170.656zM597.344 827.712v-88.864c49.536-17.696 85.344-64.608 85.344-120.16s-35.808-102.432-85.344-120.16v-88.864c97.376 19.744 170.656 105.76 170.656 208.992s-73.312 189.312-170.656 209.056zM682.656 320.032v-85.344c47.104 0 85.344-38.24 85.344-85.344v-85.344h-85.344v-85.344h170.656v170.656c0 94.24-76.416 170.656-170.656 170.656zM768 917.344h256v-85.344h-256v85.344z" />
<glyph unicode="&#xe934;" glyph-name="Like-Post-Icon" horiz-adv-x="1184" d="M1082.728 869.793c-67.032 65.183-142.013 97.531-233.314 97.531-87.278 0-184.646-67.778-257.421-139.709-74.981 71.931-169.397 139.353-259.627 139.353-88.316 0-166.185-25.729-231.011-88.77-135.135-131.176-135.135-343.953 0-475.291 38.577-37.442 412.996-443.041 412.996-443.041 21.284-20.765 49.317-31.147 77.187-31.147 27.968 0 55.838 10.382 77.285 31.147l56.001 58.888-105.025 104.928-27.806-29.363c-101.294 109.698-352.421 381.038-387.267 414.943-36.404 35.365-56.422 82.022-56.357 131.403 0 49.317 20.019 95.876 56.422 131.274 33.224 32.348 72.613 46.721 127.542 46.721 25.21 0 81.503-25.664 157.003-98.050l104.279-99.964 102.624 101.586c71.866 71.055 130.982 96.849 153.077 96.849 51.036 0 89.873-16.612 130.008-55.611 36.339-35.3 56.357-81.859 56.357-131.274s-20.019-95.973-54.151-129.197c-4.218-3.926-4.38-3.991-66.091-68.881l-6.067-6.457 104.798-105.025 1.492 1.557 7.852 8.371c0 0 58.077 61.030 59.18 62.003 135.037 131.176 135.037 344.018 0 475.226zM740.106 299.275h148.307v-148.307h-148.307v148.307z" />
<glyph unicode="&#xe935;" glyph-name="Link-Icon" d="M993.282 559.040l-592.384-592.288c-40.896-40.96-107.2-40.96-148.128 0l-222.112 222.112c-40.896 40.896-40.896 107.2 0 148.128l74.048 74.048 74.048-74.048 74.048 74.048-74.080 73.984 222.208 222.144c40.896 40.896 107.2 40.896 148.128 0l148.128-148.128-74.080-74.048-148.128 148.128-37.024-37.024-74.080 73.984-74.048-73.984 74.048-74.048-259.168-259.168 222.112-222.208 74.080 74.048 74.048-74.048 148.128 148.16c-40.896-40.896-107.2-40.896-148.128 0l-148.128 148.128 74.080 74.048 148.128-148.064 370.336 370.24-222.208 222.112-74.048-74.080-74.080 74.048 74.080 74.048c40.896 40.896 107.264 40.896 148.128 0l222.144-222.144c40.864-40.864 40.864-107.168-0.064-148.064zM289.793 596.128v0z" />
<glyph unicode="&#xe936;" glyph-name="Login-Icon" horiz-adv-x="928" d="M-1.438 401.824c0-208.48 137.184-384.832 326.24-444v98.592c-136.416 55.296-232.736 188.832-232.736 345.056 0 156.256 96.288 289.792 232.736 345.088v99.2c-189.056-59.168-326.24-235.52-326.24-443.904zM604.067 845.504v-98.944c136.416-55.296 232.736-188.832 232.736-345.056s-96.288-289.792-232.736-345.056v-98.272c188.608 59.36 325.408 235.424 325.408 443.616 0 208.096-136.736 384.224-325.408 443.68zM417.89 494.56h93.088v465.44h-93.088v-465.44zM417.89-64h93.088v93.088h-93.088v-93.088z" />
<glyph unicode="&#xe937;" glyph-name="logo-OL" d="M938.848 195.648l-0.48 0.352c-11.008-16.704-22.656-32.96-35.52-48.192l-52.864 79.264c8.032 11.2 15.616 22.752 22.752 34.592 4.032 6.752 7.68 13.664 11.36 20.64 7.424 14.208 14.176 28.832 20.032 43.904 18.4 47.232 29.504 98.112 29.504 151.872 0 94.88-31.68 182.080-84.576 252.544l44.096 88.192c81.024-90.56 130.816-209.664 130.816-340.736 0-104.448-31.456-201.472-85.152-282.464zM205.92 68.384c-117.216 87.712-194.976 224.288-204.096 379.616h-0.288c-0.576 10.016-1.504 19.968-1.504 30.112v0 0c0 33.088 3.392 65.376 9.44 96.768l83.648-50.208c-0.608-5.376-0.544-11.008-0.96-16.448h0.128c-0.736-9.984-1.856-19.904-1.856-30.112 0-134.912 63.648-254.752 162.24-331.936l-46.688-77.792zM737.888 116.704c24.928 0 45.184-20.224 45.184-45.184s-20.224-45.184-45.184-45.184c-24.928 0-45.184 20.224-45.184 45.184s20.224 45.184 45.184 45.184zM557.184 56.48c24.928 0 45.184-20.224 45.184-45.184s-20.224-45.184-45.184-45.184c-24.96 0-45.184 20.224-45.184 45.184s20.224 45.184 45.184 45.184zM225.888 899.776c24.928 0 45.184-20.224 45.184-45.184s-20.224-45.184-45.184-45.184-45.184 20.224-45.184 45.184c0 24.96 20.224 45.184 45.184 45.184zM105.408 749.184c24.928 0 45.184-20.224 45.184-45.184s-20.224-45.184-45.184-45.184-45.184 20.224-45.184 45.184c0 24.96 20.224 45.184 45.184 45.184zM380.192 959.84l472.48 0.16-203.296-388.512h163.776l-512-635.488 150.592 512h-210.816l139.264 511.84z" />
<glyph unicode="&#xe938;" glyph-name="Logout-Icon" horiz-adv-x="1376" d="M859.985 849.275c160.020 0 297.723-93.845 362.156-229.323h123.772c-70.851 200.331-261.378 344.033-485.928 344.033s-415.142-143.734-485.993-344h123.836c64.434 135.414 202.137 229.258 362.156 229.258zM859.985 46.629c-160.020 0-297.723 93.845-362.156 229.323h-123.836c70.916-200.266 261.443-343.936 485.993-343.936 224.518 0 415.077 143.669 485.993 343.936h-123.772c-64.498-135.478-202.201-229.323-362.221-229.323zM745.307 390.661v114.678h-525.852l104.874 104.809-81.074 81.074-243.254-243.19 243.254-243.254 81.074 81.074-104.874 104.874h525.852zM1261.291 505.274v-114.678h114.678v114.678h-114.678z" />
<glyph unicode="&#xe939;" glyph-name="Magnifying-Glass-Icon" horiz-adv-x="1088" d="M701.286 845.242c-153.011 153.011-401.108 153.011-554.151 0s-153.011-401.172 0-554.151c153.011-153.011 401.172-153.011 554.151 0 153.011 152.979 153.011 401.108 0 554.151zM632.013 360.364c-114.758-114.758-300.911-114.758-415.637 0-114.758 114.758-114.758 300.847 0 415.637s300.911 114.758 415.637 0c114.758-114.726 114.758-300.847 0-415.637zM804.568 255.795l69.241 69.305 69.337-69.273-69.241-69.305-69.337 69.273zM943.371 48.234c-19.159-19.191-50.114-19.191-69.273 0l-207.786 207.786-26.809 27.388 138.224 138.224-42.174 42.239-207.851-207.851 277.092-277.059c57.315-57.315 150.536-57.315 207.786 0 57.315 57.251 57.315 150.472 0 207.786l-69.273-69.273c19.159-19.159 19.094-50.211 0-69.273z" />
<glyph unicode="&#xe93a;" glyph-name="Manage-Widgets-Icon" horiz-adv-x="1248" d="M0 845.056v-794.205c0-62.634 50.828-113.462 113.462-113.462h453.786v113.462h-453.786v794.205h453.786v113.462h-453.786c-62.634 0-113.462-50.828-113.462-113.462zM340.355 164.314v567.248h-113.462v-567.248h113.462zM453.786 164.314h113.462v567.248h-113.462v-567.248zM680.679 845.056h113.462v113.462h-113.462v-113.462zM907.572 845.056h113.462v113.462h-113.462v-113.462zM1134.497 958.519v-113.462h113.462v113.462h-113.462zM1134.497 618.163h113.462v113.399h-113.462v-113.399zM1134.497 391.27h113.462v113.462h-113.462v-113.462zM1134.497 164.314h113.462v113.462h-113.462v-113.462zM1134.497-62.579h113.462v113.462h-113.462v-113.462zM907.572-62.579h113.462v113.462h-113.462v-113.462zM680.679-62.579h113.462v113.462h-113.462v-113.462z" />
<glyph unicode="&#xe93b;" glyph-name="Media-Icon" d="M921.6 959.998h-716.8v-102.4h716.8v-173.12l-370.24-185.152-242.528 271.872-206.432-165.312v149.312h-102.4v-716.8c0-56.512 45.888-102.336 102.4-102.336h819.2c56.512 0 102.4 45.824 102.4 102.336v819.264c0 56.512-45.888 102.336-102.4 102.336zM102.4 474.687l198.496 158.816 251.904-287.84h-450.4v129.024zM921.6 38.399h-819.2v204.864h819.2v-204.864zM921.6 345.663h-233.12l-66.496 74.56 299.616 149.824v-224.352zM102.4 959.998h-102.4v-102.4h102.4v102.4zM358.4 192.062h-102.4v-102.4h102.4v102.4zM563.2 192.062h-102.4v-102.4h102.4v102.4zM768 192.062h-102.4v-102.4h102.4v102.4z" />
<glyph unicode="&#xe93c;" glyph-name="Members-Newsfeed-Icon" d="M614.393 448.075h-409.533v-102.393h409.533v102.393zM204.86 140.935h409.533v102.393h-409.533v-102.393zM716.747 448.075v-307.14h102.393v307.14h-102.393zM921.533 959.962h-819.027c-56.514 0-102.393-45.879-102.393-102.393v-307.14h921.42v-511.887h-819.027v204.747h-102.393v-204.747c0-56.514 45.879-102.393 102.393-102.393h819.027c56.514 0 102.393 45.879 102.393 102.393v819.027c0 56.514-45.879 102.393-102.393 102.393zM921.533 652.822h-819.027v204.747h819.027v-204.747zM102.467 448.075h-102.393v-102.393h102.393v102.393zM256.037 806.392h-102.393v-102.393h102.393v102.393zM409.607 806.392h-102.393v-102.393h102.393v102.393zM563.177 806.392h-102.393v-102.393h102.393v102.393z" />
<glyph unicode="&#xe93d;" glyph-name="Menu-Icon" horiz-adv-x="1312" d="M145.758 958.201h-145.758v-145.758h145.758v145.758zM291.548 958.201v-145.758h1020.403v145.758h-1020.403zM437.306 520.895h-437.306v-145.758h437.306v145.758zM583.096 520.895v-145.758h145.758v145.758h-145.758zM874.645 375.105h437.306v145.758h-437.306v-145.758zM0-62.201h1020.403v145.694h-1020.403v-145.694zM1166.161-62.201h145.758v145.694h-145.758v-145.694z" />
<glyph unicode="&#xe93e;" glyph-name="Microphone-Icon" d="M563.2 38.4v153.6h-102.4v-153.6h-204.8v-102.4h512v102.4zM512 243.2c-169.408 0-307.2 137.792-307.2 307.2h-102.4c0-226.208 183.392-409.6 409.6-409.6s409.6 183.392 409.6 409.6h-102.4c0-169.408-137.792-307.2-307.2-307.2zM423.84 499.2c17.76-30.464 50.432-51.2 88.16-51.2 56.512 0 102.4 45.92 102.4 102.4v204.8c0 56.48-45.888 102.4-102.4 102.4-37.728 0-70.4-20.736-88.16-51.2h-109.376c22.848 88.16 102.24 153.6 197.536 153.6 113.088 0 204.8-91.712 204.8-204.8v-204.8c0-113.088-91.712-204.8-204.8-204.8-95.296 0-174.688 65.44-197.536 153.6h109.376zM307.2 704h102.4v-102.4h-102.4v102.4z" />
<glyph unicode="&#xe93f;" glyph-name="Minimize-Screen-Icon" d="M64.764 256.265h159.727l-224.448-224.385 95.836-95.836 224.448 224.385v-159.727h127.782v383.345h-383.345v-127.782zM703.672 256.265v127.782h-127.782v-383.345h127.782v159.727l224.385-224.385 95.9 95.836-224.448 224.385h-95.836zM959.236 256.265v127.782h-127.782v-127.782h127.782zM320.328 735.446l-224.448 224.385-95.836-95.836 224.448-224.385h95.836v-127.782h127.782v383.345h-127.782v-159.727zM64.764 639.61v-127.782h127.782v127.782h-127.782zM959.236 639.61h-159.727l224.448 224.448-95.9 95.836-224.385-224.448v159.727h-127.782v-383.345h383.345v127.782z" />
<glyph unicode="&#xe940;" glyph-name="Month-Calendar-Icon" horiz-adv-x="832" d="M741.798-64h93.088v93.056h-93.088v-93.056zM741.798 866.848h-93.088v46.592c0 25.696-20.8 46.56-46.56 46.56s-46.56-20.864-46.56-46.56v-46.56h-279.264v46.56c0 25.696-20.864 46.56-46.56 46.56-25.728 0-46.56-20.864-46.56-46.56v-46.56h-93.088c-51.392 0-93.088-41.664-93.088-93.088v-744.736c0-51.424 41.696-93.088 93.088-93.088h558.56v93.056h-558.56v744.768h93.088v-46.56c0-25.696 20.8-46.56 46.56-46.56 25.696 0 46.56 20.864 46.56 46.56v46.56h279.264v-46.56c0-25.696 20.8-46.56 46.56-46.56s46.56 20.864 46.56 46.56v46.56h93.088v-651.648h93.088v651.648c0 51.392-41.696 93.056-93.088 93.056zM229.798 122.176h93.088v93.088h-93.088v-93.088zM369.414 122.176h93.088v93.088h-93.088v-93.088zM509.063 122.176h93.088v93.088h-93.088v-93.088zM322.887 354.912h-93.088v-93.152h93.088v93.152zM462.502 354.912h-93.088v-93.152h93.088v93.152zM602.15 354.912h-93.088v-93.152h93.088v93.152zM322.887 494.56h-93.088v-93.088h93.088v93.088zM462.502 494.56h-93.088v-93.088h93.088v93.088zM602.15 494.56h-93.088v-93.088h93.088v93.088z" />
<glyph unicode="&#xe941;" glyph-name="Multimedia-Icon" d="M921.6 959.998h-716.8v-102.4h716.8v-173.12l-370.24-185.152-242.528 271.872-206.432-165.312v149.312h-102.4v-716.8c0-56.512 45.888-102.336 102.4-102.336h819.2c56.512 0 102.4 45.824 102.4 102.336v819.264c0 56.512-45.888 102.336-102.4 102.336zM102.4 474.687l198.496 158.816 251.904-287.84h-450.4v129.024zM921.6 38.399h-819.2v204.864h819.2v-204.864zM921.6 345.663h-233.12l-66.496 74.56 299.616 149.824v-224.352zM102.4 959.998h-102.4v-102.4h102.4v102.4zM358.4 192.062h-102.4v-102.4h102.4v102.4zM563.2 192.062h-102.4v-102.4h102.4v102.4zM768 192.062h-102.4v-102.4h102.4v102.4z" />
<glyph unicode="&#xe942;" glyph-name="mute-emoticon-square-face" d="M149.792 810.24c-199.744-199.744-199.712-524.704 0.032-724.448 199.68-199.712 524.64-199.712 724.384 0.064 199.712 199.712 199.712 524.672 0.032 724.352-199.744 199.776-524.736 199.776-724.416 0.064zM818.336 141.664c-168.896-168.896-443.776-168.928-612.672-0.032-168.928 168.928-168.928 443.808 0 612.704 168.896 168.896 443.744 168.928 612.672-0.032 168.896-168.896 168.896-443.744-0.032-612.672zM403.84 503.872c-23.36-23.36-61.28-23.36-84.672 0.032s-23.36 61.28 0 84.672c23.392 23.36 61.312 23.36 84.672 0s23.36-61.312 0-84.672zM716.48 587.648c23.36-23.36 23.36-61.312 0-84.672-23.424-23.392-61.344-23.392-84.672-0.032s-23.36 61.28 0.032 84.672c23.36 23.392 61.28 23.392 84.672 0zM607.104 278.208l-25.856-25.888 25.856-25.824c9.248-9.248 14.336-21.536 14.336-34.624s-5.088-25.408-14.336-34.656c-18.496-18.528-50.72-18.528-69.28 0l-25.856 25.824-25.824-25.824c-9.248-9.28-21.536-14.368-34.656-14.368s-25.376 5.088-34.624 14.368c-19.104 19.072-19.104 50.144 0 69.216l25.856 25.888-25.888 25.888c-18.112 18.144-19.040 47.456-2.112 66.816 0.384 0.512 1.152 1.408 2.016 2.272 18.784 18.784 50.848 18.688 69.376 0.192l25.856-25.888 25.888 25.888c17.6 17.632 48 18.56 66.784 2.112 0.608-0.448 1.568-1.28 2.464-2.176 9.248-9.248 14.336-21.536 14.336-34.592 0.032-13.088-5.088-25.376-14.336-34.624z" />
<glyph unicode="&#xe943;" glyph-name="Newsfeed-Icon" horiz-adv-x="928" d="M207.988 140.736v102.464h307.2v-102.464h-307.2zM207.988 448h512v-102.4h-512v102.4zM719.987 140.736v-204.736h-716.8v921.6c0 56.512 45.888 102.4 102.4 102.4h716.8c56.512 0 102.4-45.888 102.4-102.4v-307.2h-819.2v-512.064h512v204.864h307.2v-102.464h-204.8zM822.388 652.8v204.8h-716.8v-204.8h716.8zM259.188 704h-102.4v102.4h102.4v-102.4zM412.788 704h-102.4v102.4h102.4v-102.4zM566.388 704h-102.4v102.4h102.4v-102.4zM822.388 448h102.4v-102.4h-102.4v102.4z" />
<glyph unicode="&#xe944;" glyph-name="Next-Song-Icon" horiz-adv-x="1536" d="M790.72 619.44l-499.648 306.368c-36.672 22.336-73.984 33.536-111.296 33.536-89.344 0-179.776-70.016-179.776-203.776v-178.88h128c0 153.088 0 178.944 0 178.944 0 47.936 20.096 75.776 51.776 75.776 13.056 0 28.032-4.736 44.416-14.656l500.16-306.688c56.256-34.112 59.136-89.984 2.816-124.096l-502.976-306.56c-16.384-10.048-31.424-14.72-44.48-14.72-31.616 0-51.712 27.776-51.712 75.648 0 0 0 19.2 0 50.752 0 0.384 0 1.152 0 1.536h-128v-52.288c0-133.696 90.432-203.648 179.712-203.648 37.312 0 74.688 11.2 111.040 33.344l503.040 306.56c64.832 39.36 102.208 101.248 102.208 169.664 0.064 69.504-38.336 132.608-105.28 173.184zM0 448.687h128v-128h-128v128zM1430.72 619.44l-499.648 306.368c-36.736 22.336-74.048 33.536-111.36 33.536-89.28 0-179.712-70.016-179.712-203.776v-133.12l128-85.952c0 18.176 0 32.384 0 39.424 0 153.792 0 179.648 0 179.648 0 47.936 20.096 75.776 51.776 75.776 13.056 0 28.032-4.736 44.416-14.656l500.16-306.688c56.256-34.112 59.136-89.984 2.816-124.096l-502.976-306.56c-16.384-9.984-31.424-14.656-44.48-14.656-31.616 0-51.712 27.776-51.712 75.648 0 0 0 19.2 0 50.752 0 13.568 0 76.48 0 147.904-30.656-28.032-62.016-56.256-64-56.96-1.6-0.576-30.464-12.096-64-25.664v-116.032c0-133.696 90.432-203.648 179.712-203.648 37.312 0 74.688 11.2 111.040 33.344l503.040 306.56c64.832 39.36 102.208 101.248 102.208 169.664 0.064 69.504-38.336 132.608-105.28 173.184z" />
<glyph unicode="&#xe945;" glyph-name="No-Sound-Icon" horiz-adv-x="1600" d="M64 639.936c-35.392 0-64-24.576-64-54.848v-274.24c0-30.336 28.608-54.848 64-54.848 35.328 0 64 24.576 64 54.848v274.24c0 30.272-28.672 54.848-64 54.848zM704 512h128v-128h-128v128zM704.128 256v-156.16l-320.128 186.176v322.688l320.128 187.264v-155.968h128c0 124.608 0 218.816 0 218.816 0 64.064-28.096 101.184-72.448 101.184-18.24 0-39.232-6.336-62.208-19.648l-441.472-258.24v-469.76l441.472-256.768c22.976-13.248 43.968-19.584 62.272-19.584 44.288 0 72.384 37.12 72.384 101.056 0 0 0 94.208 0 218.816 0 0.064 0 0.064 0 0.128h-128zM1509.504 720.256l-180.992-180.992-180.992 180.992-90.496-90.496 180.992-180.992-180.992-181.056 90.496-90.432 180.992 180.992 180.992-180.992 90.496 90.432-180.992 181.056 180.992 180.992z" />
<glyph unicode="&#xe946;" glyph-name="notification-icon-grey" d="M472.314-64.061l-472.282 472.73 550.883 551.299h268.321v-102.413h-226.332l-448.119-448.759 327.464-327.88 449.399 449.143v225.115h102.413v-267.489l-551.747-551.683zM921.649 959.936h102.413v-102.413h-102.413v102.413zM716.824 499.080c-84.81 0-153.619 68.776-153.619 153.619s68.808 153.619 153.619 153.619c84.81 0 153.619-68.776 153.619-153.619s-68.808-153.619-153.619-153.619zM716.824 703.905c-28.259 0-51.206-22.979-51.206-51.206s22.947-51.206 51.206-51.206c28.259 0 51.206 22.979 51.206 51.206s-22.947 51.206-51.206 51.206z" />
<glyph unicode="&#xe947;" glyph-name="Online-Icon" d="M153.644 857.612c28.253 0 51.194-22.941 51.194-51.194s-22.941-51.194-51.194-51.194-51.194 22.941-51.194 51.194 22.941 51.194 51.194 51.194zM153.644 960c-84.822 0-153.581-68.76-153.581-153.581 0-84.79 68.76-153.581 153.581-153.581s153.581 68.792 153.581 153.581c0 84.822-68.76 153.581-153.581 153.581v0zM461.222 38.448h102.388v-102.388h-102.388v102.388zM102.866 447.999c0 34.876 4.799 68.504 12.99 100.852h-105.811c-6.463-32.508-9.983-66.040-9.983-100.436 0-229.284 150.862-423.212 358.772-488.324v108.467c-150.062 60.729-255.969 207.655-255.969 379.442zM665.997 550.45h102.388v-102.451h-102.388v102.451zM256.383 548.85h102.388v-100.852h-102.388v100.852zM512 960c-35.068 0-69.304-3.52-102.388-10.303v-105.619c32.924 8.511 67.224 13.502 102.803 13.502 226.18 0 409.55-183.37 409.55-409.614 0-171.819-105.971-318.745-255.969-379.442v-108.019c207.495 65.208 357.94 258.944 357.94 487.876 0 282.494-229.284 511.586-511.938 511.586zM358.355 340.364c0-53.593 68.664-97.012 153.389-97.012s153.389 43.419 153.389 97.012v5.183h-306.747v-5.183z" />
<glyph unicode="&#xe948;" glyph-name="Open-Playlist-Icon" horiz-adv-x="1312" d="M0 812.443h145.758v145.758h-145.758v-145.758zM291.548 958.201v-145.758h1020.403v145.758h-1020.403zM0 375.105h145.758v145.758h-145.758v-145.758zM291.548 375.105h1020.403v145.758h-1020.403v-145.758zM0-62.201h145.758v145.758h-145.758v-145.758zM291.548-62.201h1020.403v145.758h-1020.403v-145.758z" />
<glyph unicode="&#xe949;" glyph-name="Orders-Icon" d="M921.6 448v-409.6c0-56.512-45.888-102.4-102.4-102.4h-614.4c-56.512 0-102.4 45.888-102.4 102.4v409.6c-56.512 0-102.4 45.888-102.4 102.4v102.4c0 56.512 45.888 102.4 102.4 102.4h819.2c56.512 0 102.4-45.888 102.4-102.4v-102.4c0-56.512-45.888-102.4-102.4-102.4zM204.8 38.4h614.4v409.6h-614.4v-409.6zM921.6 652.8h-819.2v-102.4h819.2v102.4zM460.8 448h102.4v-409.6h-102.4v409.6zM409.6 857.6c28.256 0 51.2-22.976 51.2-51.2s-22.944-51.2-51.2-51.2h-102.4c-28.256 0-51.2 22.976-51.2 51.2s22.944 51.2 51.2 51.2h102.4zM409.6 960h-102.4c-84.832 0-153.6-68.768-153.6-153.6s68.768-153.6 153.6-153.6h102.4c84.8 0 153.6 68.768 153.6 153.6s-68.8 153.6-153.6 153.6v0zM716.8 857.6c28.224 0 51.2-22.976 51.2-51.2s-22.976-51.2-51.2-51.2h-102.4c-28.224 0-51.2 22.976-51.2 51.2s22.976 51.2 51.2 51.2h102.4zM716.8 960h-102.4c-84.8 0-153.6-68.768-153.6-153.6s68.8-153.6 153.6-153.6h102.4c84.8 0 153.6 68.768 153.6 153.6s-68.8 153.6-153.6 153.6v0z" />
<glyph unicode="&#xe94a;" glyph-name="Partly-Sunny-Icon" horiz-adv-x="1184" d="M592.186 13.264h73.988v-73.988h-73.988v73.988zM883.939 276.496c0 109.566-95.1 198.498-213.759 201.995-56.659 65.848-144.287 108.263-242.979 108.263-164.445 0-298.525-117.547-308.446-265.84-70.554-33.767-118.787-101.3-118.787-179.293 0-111.76 98.915-202.345 220.977-202.345h297.19v73.988h-297.19c-81.046 0-146.989 57.581-146.989 128.357 0 46.771 29.411 89.885 76.722 112.523l39.013 18.664 2.893 43.146c7.376 110.361 110.425 196.781 234.617 196.781 73.606 0 141.743-30.078 186.892-82.54l21.303-24.737 32.622-0.954c79.615-2.353 141.934-58.599 141.934-128.039v-50.968l47.597-18.155c42.701-16.279 70.267-52.685 70.267-92.747 0-83.78-63.908-101.363-117.547-101.363h-70.108v-73.988h70.108c105.783 0 191.535 56.85 191.535 175.351-0.032 72.97-48.679 135.48-117.865 161.87zM684.456 734.698c-122.539 0-226.319-79.52-263.074-189.69l74.814-10.683c30.396 74.146 103.176 126.386 188.26 126.386 112.396 0 203.49-91.093 203.49-203.49 0-50.841-18.791-97.198-49.601-132.872l12.591-15.103c0 0 14.976-29.919 25.85-51.731 52.399 50.491 85.148 121.235 85.148 199.706 0 153.253-124.224 277.477-277.477 277.477zM684.456 956.724c-20.413 0-37.010-16.565-37.010-37.010v-110.997c0-20.413 16.565-37.010 37.010-37.010s37.010 16.565 37.010 37.010v110.997c0 20.413-16.565 37.010-37.010 37.010zM1146.95 494.262h-110.997c-20.413 0-37.010-16.565-37.010-37.010s16.565-37.010 37.010-37.010h110.997c20.413 0 37.010 16.565 37.010 37.010s-16.565 37.010-37.010 37.010zM1037.638 810.434c-14.435 14.435-37.868 14.435-52.303 0l-78.502-78.471c-14.435-14.435-14.435-37.9 0-52.303s37.9-14.435 52.335 0l78.471 78.471c14.435 14.435 14.435 37.868 0 52.303zM383.61 810.434c-14.435 14.435-37.868 14.435-52.335 0s-14.435-37.868 0-52.303l78.502-78.471c14.435-14.435 37.9-14.435 52.335 0s14.435 37.868 0 52.303l-78.502 78.471z" />
<glyph unicode="&#xe94b;" glyph-name="Pause-Icon" horiz-adv-x="768" d="M618.656 874.656c35.328 0 64-28.64 64-64v-725.344c0-35.328-28.672-64-64-64-35.36 0-64 28.672-64 64v725.344c0 35.36 28.64 64 64 64zM618.656 960c-82.336 0-149.344-66.976-149.344-149.344v-725.344c0-82.336 66.976-149.344 149.344-149.344s149.344 66.976 149.344 149.344v725.344c0 82.336-66.976 149.344-149.344 149.344v0zM149.344 960c-82.336 0-149.344-66.976-149.344-149.344v-362.656h85.344v362.656c0 35.36 28.64 64 64 64 35.328 0 64-28.64 64-64v-725.344c0-35.328-28.672-64-64-64-35.36 0-64 28.672-64 64v106.656h-85.344v-106.656c0-82.336 66.976-149.344 149.344-149.344s149.344 66.976 149.344 149.344v725.344c0 82.336-66.976 149.344-149.344 149.344zM0 362.656h85.344v-85.344h-85.344v85.344z" />
<glyph unicode="&#xe94c;" glyph-name="Payment-Methods-Icon" d="M921.6 89.6h-256v102.4h256v307.2h-819.2v-307.2h256v-102.4h-256c-56.512 0-102.4 45.888-102.4 102.4v512c0 56.512 45.888 102.4 102.4 102.4h819.2c56.512 0 102.4-45.888 102.4-102.4v-512c0-56.512-45.888-102.4-102.4-102.4zM921.6 704h-819.2v-102.4h819.2v102.4zM204.8 396.8h307.2v-102.4h-307.2v102.4zM716.8 294.4h-102.4v102.4h102.4v-102.4zM563.2 89.6h-102.4v102.4h102.4v-102.4z" />
<glyph unicode="&#xe94d;" glyph-name="Phone-Icon" d="M768-64h-512c-56.512 0-102.4 45.888-102.4 102.4v819.2c0 56.512 45.888 102.4 102.4 102.4h512c56.512 0 102.4-45.888 102.4-102.4v-102.4h-102.4v102.4h-512v-512h512v102.4h102.4v-409.6c0-56.512-45.888-102.4-102.4-102.4zM768 243.2h-512v-204.8h512v204.8zM563.2 89.6h-102.4v102.4h102.4v-102.4zM768 652.8h102.4v-102.4h-102.4v102.4z" />
<glyph unicode="&#xe94e;" glyph-name="Photo-Icon" d="M256 243.221h511.962v511.962h-511.962v-511.962zM358.407 652.814h307.185v-307.185h-307.185v307.185zM870.37-63.887h102.408v102.408h-102.408v-102.408zM870.37 960.037h-716.778c-56.522 0-102.408-45.809-102.408-102.408v-819.147c0-56.522 45.886-102.408 102.408-102.408h614.37v102.408h-614.37v819.147h716.778v-716.701h102.408v716.701c0 56.56-45.886 102.408-102.408 102.408z" />
<glyph unicode="&#xe94f;" glyph-name="Pin-Icon" d="M358.4 243.2h-210.112c36.256 61.184 91.488 112.896 155.296 149.056l54.848 29.44v333.504h-102.4v102.4h512v-102.4h-102.4v-333.568l54.88-29.44c63.808-36.096 113.6-87.808 149.92-148.992v0-102.4h153.6c-30.4 145.312-102.4 268.448-256 340.544v171.456h58.272c28.864 0 44.128 22.944 44.128 51.2v204.8c0 28.256-15.264 51.2-44.128 51.2h-628.48c-28.928 0-44.192-22.944-44.192-51.2v-204.8c0-28.256 15.264-51.2 44.192-51.2h58.208v-171.456c-153.6-72.096-225.6-195.232-256-340.544h358.4v102.4zM460.8 243.2h102.4v-307.2h-102.4v307.2zM665.6 243.2h102.4v-102.4h-102.4v102.4z" />
<glyph unicode="&#xe950;" glyph-name="Play-Icon-Big" horiz-adv-x="832" d="M748.133 593.824l-508.832 334.816c-31.968 20.864-64.32 31.36-96.384 31.36v0c-70.24 0-145.792-55.072-145.792-175.904v-672.288c0-120.8 75.552-175.808 145.728-175.808 32.128 0 64.48 10.528 96.16 31.232l512.128 335.040c53.152 34.496 83.776 86.944 83.776 143.84 0.032 57.984-31.616 111.84-86.816 147.744zM700.197 380.192l-512.032-335.040c-16.704-10.944-31.968-16.064-45.28-16.064-32.224 0-52.64 30.336-52.64 82.656 0 0 0 20.96 0 55.392 0 0.48 0 1.12 0 1.568h-93.088v279.264h93.088c0 168.064 0 336.096 0 336.096 0 52.416 20.448 82.816 52.704 82.816 13.312 0 28.544-5.12 45.248-16l509.248-335.072c57.312-37.344 60.224-98.336 2.784-135.648zM-2.875 354.912h93.088v-93.088h-93.088v93.088z" />
<glyph unicode="&#xe951;" glyph-name="Plus-Icon" d="M585.152 960h-146.272v-438.848h-438.848v-146.272h438.848v-438.848h146.272v438.848h146.272v146.272h-146.272v438.848zM877.728 521.152v-146.272h146.272v146.272h-146.272z" />
<glyph unicode="&#xe952;" glyph-name="Points-Icon" d="M507.456 652.8l-46.080 307.2h-105.536l-202.24-614.4h-153.6v-102.4h256v51.2l136.352 435.456 17.248-77.056zM409.6 550.4h102.4v-102.336h-102.4v102.336zM921.6 294.4l-102.4 314.432v43.968h-102.4v-43.52l-136.352-443.2-26.944 179.52h-103.52l61.44-409.6h105.312l149.44 485.568 52.992-185.504v-44.096h204.8v102.4z" />
<glyph unicode="&#xe953;" glyph-name="Popup-Left-Arrow-1" horiz-adv-x="576" d="M1.802 508.285v-120.702h120.702v120.702h-120.702zM232.786 362.6l-85.333-85.333 341.368-341.3 85.333 85.333-341.368 341.3zM488.821 960.002l-341.368-341.368 85.333-85.333 341.368 341.3-85.333 85.401z" />
<glyph unicode="&#xe954;" glyph-name="Popup-Right-Arrow-1" horiz-adv-x="576" d="M453.518 508.285v-120.702h120.702v120.702h-120.702zM1.868 21.301l85.333-85.333 341.368 341.3-85.333 85.333-341.368-341.3zM1.868 874.635l341.368-341.3 85.333 85.333-341.368 341.368-85.333-85.401z" />
<glyph unicode="&#xe955;" glyph-name="Portfolio-Icon" d="M921.6 243.2h-512c-56.512 0-102.4 45.888-102.4 102.4v512c0 56.512 45.888 102.4 102.4 102.4h102.4v-102.4h-102.4v-512h512v512h-102.4v102.4h102.4c56.512 0 102.4-45.888 102.4-102.4v-512c0-56.512-45.888-102.4-102.4-102.4zM819.2 652.8v-204.8h-307.2v307.2h307.2v-102.4zM716.8 652.8h-102.4v-102.4h102.4v102.4zM614.4 960h102.4v-102.4h-102.4v102.4zM102.4 38.4h512v102.4h102.4v-102.4c0-56.512-45.888-102.4-102.4-102.4h-512c-56.512 0-102.4 45.888-102.4 102.4v512c0 56.512 45.888 102.4 102.4 102.4h102.4v-102.4h-102.4v-512z" />
<glyph unicode="&#xe956;" glyph-name="Previous-Song-Icon" horiz-adv-x="1536" d="M745.28 619.44l499.648 306.368c36.736 22.336 74.048 33.536 111.36 33.536 89.28 0 179.712-70.016 179.712-203.776v-178.88h-128c0 153.088 0 178.944 0 178.944 0 47.936-20.096 75.776-51.776 75.776-13.056 0-28.032-4.736-44.416-14.656l-500.16-306.688c-56.256-34.112-59.136-89.984-2.816-124.096l502.976-306.56c16.384-10.048 31.424-14.72 44.416-14.72 31.68 0 51.776 27.776 51.776 75.648 0 0 0 19.2 0 50.752 0 0.384 0 1.152 0 1.536h128v-52.288c0-133.696-90.368-203.648-179.776-203.648-37.248 0-74.624 11.2-110.976 33.344l-503.040 306.56c-64.832 39.36-102.208 101.248-102.208 169.664-0.064 69.504 38.336 132.608 105.28 173.184zM1408 448.687h128v-128h-128v128zM105.28 619.44l499.648 306.368c36.736 22.336 74.048 33.536 111.36 33.536 89.28 0 179.712-70.016 179.712-203.776v-133.12l-128-85.952c0 18.176 0 32.384 0 39.424 0 153.792 0 179.648 0 179.648 0 47.936-20.096 75.776-51.776 75.776-13.056 0-28.032-4.736-44.416-14.656l-500.16-306.688c-56.256-34.112-59.136-89.92-2.816-124.032l502.976-306.56c16.384-10.048 31.424-14.72 44.48-14.72 31.616 0 51.712 27.776 51.712 75.648 0 0 0 19.2 0 50.752 0 13.568 0 76.48 0 147.904 30.656-28.032 62.016-56.256 64-56.96 1.6-0.576 30.528-12.096 64-25.664v-116.032c0-133.696-90.432-203.648-179.712-203.648-37.312 0-74.688 11.2-111.040 33.344l-503.040 306.56c-64.832 39.36-102.208 101.248-102.208 169.664-0.064 69.504 38.336 132.608 105.28 173.184z" />
<glyph unicode="&#xe957;" glyph-name="Private-Icon" d="M460.8-64h102.4v102.4h-102.4v-102.4zM512 396.8c-84.8 0-153.6-68.768-153.6-153.6s68.8-153.6 153.6-153.6c84.832 0 153.6 68.768 153.6 153.6s-68.768 153.6-153.6 153.6zM563.2 192h-102.4v102.4h102.4v-102.4zM870.4 550.4h-716.8c-56.512 0-102.4-45.888-102.4-102.4v-409.6c0-56.512 45.888-102.4 102.4-102.4h204.8v102.4h-204.8v409.6h716.8v-409.6h-204.8v-102.4h204.8c56.512 0 102.4 45.888 102.4 102.4v409.6c0 56.512-45.888 102.4-102.4 102.4zM168 489.568h88v121.024c0 136.192 114.848 246.976 256 246.976s256-110.784 256-246.976v-121.024h102.4v121.024c0 192.96-160.448 349.376-358.4 349.376s-358.4-156.416-358.4-349.376v-121.76c4.8 0.192 9.568 0.704 14.4 0.704zM460.8 472v133.472c0 26.048 22.976 47.296 51.2 47.296 28.256 0 51.2-21.248 51.2-47.296v-133.472h102.4v133.472c0 82.688-68.768 149.696-153.6 149.696s-153.6-67.008-153.6-149.696v-133.472h102.4z" />
<glyph unicode="&#xe958;" glyph-name="Project-Icon" d="M204.8 601.6v256h162.4l102.4-102.4h349.6v-153.6h102.4v256h-409.6l-102.4 102.4h-307.2v-358.4zM921.6 652.8h-203.2l-102.4-204.8h-204.8l-107.168 204.8h-201.632c-56.512 0-102.4-45.888-102.4-102.4v-512c0-56.512 45.888-102.4 102.4-102.4h256v102.4h-256v512h139.616l78.432-149.92 28.768-54.88h330.048l102.464 204.8h139.872v-512h-256v-102.4h256c56.512 0 102.4 45.888 102.4 102.4v512c0 56.512-45.888 102.4-102.4 102.4zM358.4 243.2h307.2v-102.4h-307.2v102.4zM460.8 38.4h102.4v-102.4h-102.4v102.4z" />
<glyph unicode="&#xe959;" glyph-name="Public-Icon" d="M461.353 38.5h102.375v-102.375h-102.375v102.375zM1024 448.352c0 282.491-229.224 511.523-511.875 511.523-282.715 0-512.067-229-512.067-511.523 0-229.224 153.754-423.129 358.504-488.169v105.030c51.188 24.89 53.811 56.658 61.233 79.277 22.107 66.96-3.135 149.468-61.361 200.751-41.654 36.663-34.36 63.473 48.724 179.252 15.868 22.107 32.44 45.205 48.372 69.551 33.784 51.603 26.713 94.697 14.78 121.666-21.851 49.652-77.709 82.092-131.2 102.727 34.104 15.964 70.639 27.289 109.029 33.368 10.333-39.35 32.408-106.63 69.295-137.95 43.189-36.663 123.106-67.056 207.981-67.056 42.998 0 87.019 8.51 128.385 27.225 12.893-19.387 24.122-40.022 33.592-61.585-101.287 21.947-251.395 37.463-348.235-30.776-61.105-43.061-112.804-135.711-93.577-216.267 13.725-57.426 60.657-96.041 128.801-105.862 72.11-10.493 151.675-69.167 160.569-118.435 1.376-7.582 4.799-29.113-33.080-54.867-11.837-6.206-36.183-12.637-36.183-17.724v-108.070c0 7.486 47.156 16.956 69.423 27.737l0.704-1.12c3.679 2.048 6.462 4.255 9.886 6.334 165.176 84.779 278.3 256.513 278.3 454.865zM376.638 674.505c1.024-2.303 3.679-8.446-6.718-24.378-15.164-23.098-30.872-45.045-45.909-65.968-71.087-99.144-151.675-211.5-33.112-315.827 27.481-24.154 41.206-63.632 31.928-91.786-9.374-28.217-41.046-39.254-70.799-43.829-90.858 75.054-149.020 188.21-149.020 315.251 0 116.548 48.948 221.482 127.105 296.056 64.4-14.013 134.943-43.317 146.492-69.551zM583.628 792.044c-8.126 6.91-20.027 33.080-29.849 63.313 86.603-8.638 164.984-44.597 227.113-98.632-78.221-20.059-165.176 8.094-197.264 35.319zM589.002 360.981c-38.455 5.567-42.422 22.171-43.925 28.409-7.518 31.416 18.236 84.267 52.979 108.709 76.013 53.555 232.327 25.69 320.434 1.184 2.048-16.828 3.519-33.88 3.519-51.283 0-99.368-36.183-189.714-95.113-260.544-33.688 88.874-143.421 159.801-237.926 173.526z" />
<glyph unicode="&#xe95a;" glyph-name="Quote-Icon" horiz-adv-x="1120" d="M1018.204 957.102h-916.384c-56.256 0-101.82-45.628-101.82-101.82v-509.102c0-56.192 45.628-101.82 101.82-101.82 0 0 19.091 0 50.91 0v101.82h-50.91v509.102h916.384v-610.923c56.192 0 101.82 45.628 101.82 101.82v509.102c0 56.192-45.628 101.82-101.82 101.82zM661.833 244.359h50.91v101.82h-50.91v-101.82zM814.564 244.359h101.82v101.82h-101.82v-101.82zM560.012 346.18l-305.461-210.832v210.832h-101.82v-407.282l407.282 305.461h101.82v101.82zM610.923 778.916v-305.461h305.461v305.461h-305.461zM814.564 575.276h-101.82v101.82h101.82v-101.82zM203.641 778.916v-305.461h305.461v305.461h-305.461zM407.282 575.276h-101.82v101.82h101.82v-101.82z" />
<glyph unicode="&#xe95b;" glyph-name="Rain-Icon" horiz-adv-x="1216" d="M473.103 954.636h90.055v-90.055h-90.055v90.055zM337.768 256.555h-68.776c-98.636 0-178.906 70.106-178.906 156.234 0 56.933 35.781 109.402 93.411 136.982l47.497 22.704 3.515 52.532c6.048 90.308 64.818 167.285 148.571 208.164v97.717c-133.15-47.782-229.284-162.978-238.435-299.833-85.906-41.101-144.613-123.302-144.613-218.233 0-136.063 120.389-246.32 268.96-246.32h68.776v90.055zM1075.936 576.97c0 133.34-115.735 241.602-260.189 245.877-41.956 48.795-98.066 86.793-162.535 109.243v-97.084c36.098-17.036 68.364-40.816 94.266-70.897l25.933-30.113 39.708-1.172c96.894-2.881 172.763-71.309 172.763-155.854v-62.031l57.946-22.102c51.962-19.822 85.526-64.121 85.526-112.885 0-101.992-77.8-123.366-143.061-123.366h-85.336v-90.055h85.336c128.749 0 229.664 68.238 229.664 212.502 0.032 88.788-55.762 165.797-139.958 197.936zM660.241 385.462c-12.444-21.532-5.066-49.080 16.466-61.493 21.564-12.444 49.112-5.066 61.525 16.466 12.444 21.564 28.562 139.515 28.562 139.515s-94.108-72.924-106.52-94.488zM430.64 274.509c-12.444-21.564-5.035-49.080 16.497-61.525s49.080-5.066 61.525 16.497c12.444 21.532 28.562 139.515 28.562 139.515s-94.108-72.956-106.552-94.488zM546.85 80.879c-12.444-21.532-5.066-49.080 16.497-61.493 21.564-12.444 49.080-5.066 61.525 16.497s28.562 139.483 28.562 139.483-94.108-72.924-106.552-94.488zM749.473 148.452c-12.444-21.564-5.066-49.112 16.497-61.525 21.564-12.444 49.080-5.066 61.525 16.497s28.562 139.483 28.562 139.483-94.108-72.924-106.552-94.456zM317.249 8.937c-12.444-21.564-5.066-49.080 16.497-61.525s49.080-5.066 61.525 16.497c12.444 21.532 28.562 139.515 28.562 139.515s-94.108-72.956-106.552-94.488z" />
<glyph unicode="&#xe95c;" glyph-name="Read-Icon" d="M460.8 192h102.4v-102.4h-102.4v102.4zM512 806.4c-282.784 0-512-358.4-512-358.4s150.688-235.52 358.4-324.672v114.432c-95.328 53.44-179.968 143.104-232.544 210.336 79.52 102.144 232.288 255.904 386.144 255.904 152.992 0 306.336-154.048 386.144-256.16-52.48-67.392-136.96-157.024-232.544-210.368v-114.112c207.712 89.152 358.4 324.672 358.4 324.672s-229.28 358.4-512 358.4zM512 601.6c-84.832 0-153.6-68.768-153.6-153.6s68.768-153.6 153.6-153.6c84.832 0 153.6 68.768 153.6 153.6s-68.768 153.6-153.6 153.6zM563.2 396.8h-102.4v102.4h102.4v-102.4z" />
<glyph unicode="&#xe95d;" glyph-name="Register-Icon" horiz-adv-x="1184" d="M514.772 859.399c104.241 0 199.217-39.058 271.735-102.954h139.825c-93.849 125.090-242.876 206.327-411.206 206.327-230.521 0-425.555-151.665-490.931-360.758h108.971c61.097 150.892 208.836 257.386 381.607 257.386zM514.772 35.764c-172.77 0-320.51 106.493-381.607 257.386h-108.681c65.633-208.643 260.41-359.922 490.642-359.922 168.009 0 316.649 80.916 410.595 205.49h-139.149c-72.583-63.896-167.558-102.954-271.799-102.954zM1029.543 499.059v154.432h-102.954v-154.432h-154.432v-102.954h154.432v-154.432h102.954v154.432h154.432v102.954h-154.432zM102.954 499.059h-102.954v-102.954h102.954v102.954z" />
<glyph unicode="&#xe95e;" glyph-name="Remove-Playlist-Icon" horiz-adv-x="1216" d="M279.090 346.599c13.997 0 25.334-11.337 25.334-25.334v-253.407c0-13.934-11.337-25.239-25.334-25.239s-25.334 11.305-25.334 25.239v253.407c0 13.997 11.337 25.334 25.334 25.334zM279.090 447.937c-69.86 0-126.672-56.844-126.672-126.672v-253.407c0-69.765 56.812-126.577 126.672-126.577s126.672 56.812 126.672 126.577v253.407c0 69.828-56.812 126.672-126.672 126.672v0zM198.716 95.282c-53.646 2.122-96.587 45.95-96.587 100.166s42.973 98.044 96.587 100.166v101.337c-110.046-2.217-198.716-91.71-198.716-202.327s88.67-200.078 198.716-202.263v102.921zM734.253 346.599c13.997 0 25.334-11.337 25.334-25.334v-253.407c0-13.934-11.337-25.239-25.334-25.239s-25.334 11.305-25.334 25.239v253.407c0 13.997 11.337 25.334 25.334 25.334zM734.253 447.937c-69.86 0-126.672-56.844-126.672-126.672v-253.407c0-69.765 56.812-126.577 126.672-126.577 69.828 0 126.608 56.812 126.608 126.577v253.407c0 69.828-56.812 126.672-126.608 126.672v0zM814.658 95.282c53.646 2.122 96.587 45.95 96.587 100.166s-42.973 98.044-96.587 100.166v101.337c110.046-2.217 198.716-91.71 198.716-202.327s-88.67-200.078-198.716-202.263v102.921zM125.5 584.711c-15.359-42.752-24.163-88.67-24.163-136.711v-133.575h101.337v133.575c0 26.854 3.863 52.759 10.387 77.523l-87.562 59.187zM506.687 853.35c-48.072 0-93.99-8.804-136.806-24.163l58.966-87.594c24.923 6.587 50.859 10.45 77.84 10.45 167.65 0 304.012-136.362 304.012-304.012v-133.575h101.337v133.575c0 223.861-181.489 405.35-405.35 405.35zM203.752 753.089h101.337v-101.337h-101.337v101.337zM912.037 954.687h304.012v-101.337h-304.012v101.337z" />
<glyph unicode="&#xe95f;" glyph-name="Repeat-Icon" horiz-adv-x="1760" d="M1320.045 815.333h-146.657v-146.657h146.657c161.994 0 293.347-131.353 293.347-293.347s-131.353-293.347-293.347-293.347h-293.347v-146.657h293.347c242.974 0 440.004 197.062 440.004 440.004s-197.062 440.004-440.004 440.004zM733.351-64.675h146.657v146.657h-146.657v-146.657zM585.571 815.333h-145.567c-243.039 0-440.004-197.062-440.004-440.004s196.966-440.004 440.004-440.004h146.657v146.657h-146.657c-161.994 0-293.347 131.353-293.347 293.347s131.353 293.347 293.347 293.347h145.567v-145.342l294.438 218.687-294.438 218.751v-145.438z" />
<glyph unicode="&#xe960;" glyph-name="Rss-Icon" d="M153.6 243.2c-84.832 0-153.6-68.768-153.6-153.6s68.768-153.6 153.6-153.6 153.6 68.768 153.6 153.6-68.768 153.6-153.6 153.6zM204.8 38.4h-102.4v102.4h102.4v-102.4zM153.6 755.2c-52.928 0-104.192-6.848-153.6-18.528v-105.632c48.896 13.888 100.256 21.76 153.6 21.76 311.040 0 563.2-252.16 563.2-563.2 0-53.312-7.872-104.704-21.76-153.6h105.632c11.68 49.408 18.528 100.672 18.528 153.6 0 367.616-297.984 665.6-665.6 665.6zM921.6 38.4v-102.4h102.4v102.4h-102.4zM153.6 960c-52.48 0-103.616-5.44-153.6-14.336v-103.488c49.6 10.080 101.024 15.424 153.6 15.424 406.848 0 738.976-316.608 765.376-716.8h102.4c-26.624 456.768-404.384 819.2-867.776 819.2zM153.6 550.4c-53.952 0-105.536-9.728-153.6-26.784v-111.424c46.688 22.272 98.368 35.776 153.6 35.776 197.952 0 358.4-160.448 358.4-358.4 0-55.2-13.504-106.912-35.776-153.6h111.424c17.056 48.064 26.784 99.648 26.784 153.6 0 254.528-206.272 460.8-460.8 460.8z" />
<glyph unicode="&#xe961;" glyph-name="Save-Playlist-Icon" horiz-adv-x="1120" d="M257.044 307.961c12.865 0 23.324-10.459 23.324-23.324v-233.367c0-12.833-10.459-23.228-23.324-23.228s-23.324 10.395-23.324 23.228v233.367c0 12.865 10.459 23.324 23.324 23.324zM257.044 401.288c-64.357 0-116.651-52.358-116.651-116.651v-233.367c0-64.261 52.326-116.555 116.651-116.555s116.651 52.326 116.651 116.555v233.367c0 64.293-52.326 116.651-116.651 116.651v0zM183.030 76.486c-49.407 1.957-88.932 42.317-88.932 92.269s39.558 90.312 88.932 92.269v93.328c-101.348-2.053-183.030-84.473-183.030-186.334s81.65-184.281 183.030-186.302v94.771zM676.232 307.961c12.865 0 23.324-10.459 23.324-23.324v-233.367c0-12.833-10.459-23.228-23.324-23.228s-23.324 10.395-23.324 23.228v233.367c0 12.865 10.459 23.324 23.324 23.324zM676.232 401.288c-64.357 0-116.651-52.358-116.651-116.651v-233.367c0-64.261 52.326-116.555 116.651-116.555 64.293 0 116.619 52.326 116.619 116.555v233.367c0 64.293-52.326 116.651-116.619 116.651v0zM750.278 76.486c49.407 1.957 88.932 42.317 88.932 92.269s-39.558 90.312-88.932 92.269v93.328c101.348-2.053 183.030-84.473 183.030-186.334s-81.65-184.281-183.030-186.302v94.771zM115.593 527.243c-14.148-39.397-22.265-81.65-22.265-125.891v-123.004h93.328v123.004c0 24.735 3.561 48.573 9.561 71.383l-80.623 54.508zM466.638 774.663c-44.274 0-86.558-8.117-125.987-22.265l54.315-80.687c22.971 6.064 46.84 9.625 71.672 9.625 154.412 0 279.983-125.57 279.983-279.983v-123.004h93.328v123.004c0 206.161-167.149 373.31-373.31 373.31zM187.65 682.297h93.328v-93.328h-93.328v93.328zM933.308 961.318h93.328v-279.983h-93.328v279.983zM839.98 867.99h279.983v-93.328h-279.983v93.328z" />
<glyph unicode="&#xe962;" glyph-name="Services---Manage-Icon" d="M614.388 243.287h102.388v-102.388h-102.388v102.388zM941.676 794.324l-163.5-163.5-83.382 83.382 163.468 163.5c-73.143 54.841-160.3 82.262-247.458 82.262-105.459 0-210.854-40.187-291.356-120.657-99.156-99.156-137.103-236.163-114.322-364.5l-135.919-135.983c-92.149-92.149-92.149-241.475 0-333.687 46.074-46.074 106.419-69.112 166.828-69.112 60.345 0 120.721 22.973 166.828 69.112l109.139 109.235v135.503l-7.935 1.376-173.643-173.707c-25.245-25.245-58.777-39.099-94.452-39.099s-69.208 13.886-94.388 39.099c-52.058 52.122-52.058 136.847 0 188.841l173.707 173.707-9.311 52.57c-17.822 100.148 14.334 202.631 85.846 274.207 58.457 58.457 136.239 90.677 218.949 90.677 25.245 0 49.978-2.976 73.879-8.767l-134.64-134.64 228.164-228.228 134.384 134.384c24.573-102.451-3.648-214.566-81.718-292.508-3.744-3.744-7.775-7.103-11.711-10.591v-126.129c30.012 17.502 58.457 38.651 84.15 64.344 147.086 147.022 159.565 377.138 38.395 538.878z" />
<glyph unicode="&#xe963;" glyph-name="Settings-Icon" d="M227.552 835.808v124.192h-113.792v-124.256c-66.176-23.488-113.792-85.952-113.792-160.192s47.616-136.704 113.792-160.192v-351.808h113.792v351.872c66.176 23.488 113.792 85.952 113.792 160.128s-47.616 136.704-113.792 160.256zM227.552 618.656h-113.792v113.792h113.792v-113.792zM910.208 835.808v124.192h-113.792v-124.256c-66.112-23.488-113.792-85.952-113.792-160.192s47.68-136.64 113.792-160.192v-579.36h113.792v579.424c66.112 23.488 113.792 85.952 113.792 160.128s-47.68 136.704-113.792 160.256zM910.208 618.656h-113.792v113.792h113.792v-113.792zM568.896 380.64v579.36h-113.792v-579.36c-66.176-23.488-113.792-85.952-113.792-160.192 0-74.176 47.616-136.64 113.792-160.192v-124.256h113.792v124.256c66.112 23.552 113.792 86.080 113.792 160.192 0 74.24-47.68 136.704-113.792 160.192zM568.896 163.616h-113.792v113.728h113.792v-113.728zM113.792-64h113.792v113.792h-113.792v-113.792z" />
<glyph unicode="&#xe964;" glyph-name="Settings-V2-Icon" d="M284.448 277.344c-74.24 0-136.704-47.616-160.192-113.792h-124.256v-113.792h124.256c23.488-66.112 85.952-113.792 160.192-113.792s136.704 47.68 160.192 113.792h351.808v113.792h-351.808c-23.488 66.176-85.952 113.792-160.192 113.792zM341.344 49.792h-113.792v113.792h113.792v-113.792zM739.552 618.656c-74.24 0-136.704-47.68-160.192-113.792h-579.36v-113.792h579.36c23.488-66.176 86.016-113.792 160.192-113.792s136.704 47.68 160.192 113.792h124.256v113.792h-124.256c-23.488 66.176-85.952 113.792-160.192 113.792zM796.448 391.104h-113.792v113.792h113.792v-113.792zM444.64 846.208c-23.488 66.176-85.952 113.792-160.192 113.792s-136.704-47.616-160.192-113.792h-124.256v-113.792h124.256c23.488-66.112 85.952-113.792 160.192-113.792s136.704 47.616 160.192 113.792h579.36v113.792h-579.36zM341.344 732.448h-113.792v113.792h113.792v-113.792zM910.208 49.792h113.792v113.792h-113.792v-113.792z" />
<glyph unicode="&#xe965;" glyph-name="Share-Icon" horiz-adv-x="1280" d="M365.66 423.095v-99.732h298.998v-99.797h-298.998v-100.583l-199.561 150.088 199.561 150.023zM465.458 622.983l-465.458-349.846 465.458-349.944v200.675h298.998v299.391h-298.998v199.725zM515.323 773.203h99.797v-99.797h-99.797v99.797zM1173.925 702.644l-359.276 270.12v-199.725h-99.797v-99.83h199.561v99.732l199.561-150.023-199.561-150.023v100.583h-398.795v-99.797h298.998v-200.675l465.392 349.879z" />
<glyph unicode="&#xe966;" glyph-name="Shop-Bag-Icon" d="M665.54-63.999h307.23l-51.192 819.229h-204.807c0 113.099-91.708 204.807-204.807 204.807s-204.807-91.708-204.807-204.807h-204.807l-51.192-819.229h307.23v102.346h-204.807l51.192 614.46h102.423v-102.346h102.423v102.346h204.807v-102.346h102.423v102.346h102.423l51.192-614.46h-204.807v-102.346zM409.502 755.23c0 56.53 45.892 102.423 102.423 102.423s102.423-45.892 102.423-102.423h-204.807zM460.733-64.037h102.423v102.423h-102.423v-102.423z" />
<glyph unicode="&#xe967;" glyph-name="Shuffle-Icon" horiz-adv-x="1568" d="M897.568 725.736c-28.154-39.147-69.538-92.93-113.318-156.811-0.128 0.128-0.288 0.352-0.415 0.543-44.036 64.073-85.612 118.016-113.862 157.355-60.622 84.525-148.471 100.504-195.032 96.605h-201.167v-136.359l212.895 0.479c2.397 0.352 42.343 1.853 72.542-40.233 33.555-46.689 87.114-121.755 141.408-199.346-54.262-77.591-107.854-152.657-141.408-199.346-30.199-42.055-70.145-40.553-72.542-40.233l-212.895 0.479v-136.359h201.103c46.625-3.963 134.506 12.080 195.128 96.605 28.218 39.275 69.73 93.186 113.798 157.355 0.128 0.192 0.288 0.415 0.415 0.607 43.781-63.818 85.228-117.728 113.382-156.875 60.75-84.398 148.631-100.504 195.191-96.541h201.040v136.359l-212.895-0.543c-2.397-0.288-42.343-1.853-72.542 40.297-33.331 46.497-86.635 121.020-140.641 198.195 54.007 77.175 107.247 151.762 140.641 198.195 30.199 42.119 70.145 40.553 72.542 40.233l212.895-0.479v136.359h-201.040c-46.561 3.963-134.442-12.080-195.191-96.541zM0 209.188h136.359v-136.359h-136.359v136.359zM1294.278 959.307v-406.713l273.709 203.372zM0 823.172h136.359v-136.359h-136.359v136.359zM1294.278-63.307l273.709 203.372-273.709 203.372z" />
<glyph unicode="&#xe968;" glyph-name="Skills-Icon" d="M215.040 448.064l-143.36 153.536-71.68-76.8 215.040-230.4 358.4 383.936-71.68 76.864-286.72-307.136zM645.056 908.8l-71.616-76.8 71.616-76.8 71.744 76.8-71.744 76.8zM819.2 704v-102.4h204.8v102.4h-204.8zM512 294.4h512v102.4h-512v-102.4zM0-12.8h102.4v102.4h-102.4v-102.4zM204.8-12.8h819.2v102.4h-819.2v-102.4z" />
<glyph unicode="&#xe969;" glyph-name="Small-Calendar-Icon" horiz-adv-x="800" d="M684.468 846.208h-56.896v56.896c0 31.456-25.472 56.896-56.896 56.896-31.456 0-56.896-25.44-56.896-56.896v-56.896h-227.552v56.896c0 31.456-25.472 56.896-56.896 56.896-31.456 0-56.896-25.44-56.896-56.896v-56.896h-56.896c-62.816 0-113.792-45.28-113.792-101.088v-707.936c0-55.936 50.976-101.216 113.792-101.216h455.104v113.792h-455.104v682.656h56.896v-56.896c0-31.392 25.44-56.896 56.896-56.896 31.392 0 56.896 25.472 56.896 56.896v56.896h227.552v-56.896c0-31.392 25.44-56.896 56.896-56.896 31.392 0 56.896 25.472 56.896 56.896v56.896h56.896v-568.896h113.792v581.568c0 55.808-50.976 101.088-113.792 101.088zM684.468-64h113.792v113.792h-113.792v-113.792zM229.364 391.168h341.344v113.792h-341.344v-113.792zM229.364 163.616h113.792v113.792h-113.792v-113.792zM456.916 163.616h113.792v113.792h-113.792v-113.792z" />
<glyph unicode="&#xe96a;" glyph-name="Snow-Icon" horiz-adv-x="1152" d="M448.273 959.993h85.353v-85.353h-85.353v85.353zM320.035 298.545h-65.191c-93.482 0-169.522 66.407-169.522 148.048 0 53.926 33.892 103.659 88.49 129.774l44.997 21.538 3.328 49.765c5.729 85.545 61.415 158.513 140.783 197.237v92.586c-126.19-45.285-217.272-154.417-225.913-284.095-81.385-38.948-137.007-116.845-137.007-206.774 0-128.91 114.092-233.401 254.844-233.401h65.191v85.353zM1019.471 602.162c0 126.35-109.676 228.921-246.523 232.985-39.78 46.245-92.906 82.217-154.001 103.499v-92.010c34.212-16.13 64.775-38.66 89.322-67.175l24.547-28.515 37.604-1.12c91.818-2.72 163.698-67.559 163.698-147.696v-58.79l54.886-20.962c49.253-18.786 81.033-60.775 81.033-106.956 0-96.618-73.704-116.909-135.567-116.909h-80.873v-85.353h80.873c121.997 0 217.592 64.679 217.592 201.366 0.032 84.137-52.838 157.105-132.622 187.572zM608.802 338.678l-23.907 23.907h55.174c11.777 0 21.346 9.569 21.346 21.346s-9.569 21.346-21.346 21.346h-55.174l23.907 23.907c8.353 8.353 8.353 21.858 0 30.179s-21.826 8.321-30.179 0l-23.907-23.907v55.142c0 11.809-9.569 21.346-21.346 21.346s-21.346-9.537-21.346-21.346v-55.142l-23.907 23.907c-8.353 8.321-21.858 8.321-30.179 0s-8.321-21.858 0-30.179l23.907-23.907h-55.142c-11.809 0-21.346-9.537-21.346-21.346s9.537-21.346 21.346-21.346h55.142l-23.907-23.907c-8.321-8.353-8.321-21.826 0-30.179s21.858-8.353 30.179 0l23.907 23.907v-55.174c0-11.777 9.537-21.346 21.346-21.346s21.346 9.569 21.346 21.346v55.174l23.907-23.907c8.353-8.353 21.826-8.353 30.179 0s8.353 21.826 0 30.179zM792.95 167.043h-45.925l19.938 19.938c6.945 6.945 6.945 18.21 0 25.155s-18.21 6.945-25.155 0l-19.938-19.938v45.989c0 9.825-7.969 17.762-17.762 17.762s-17.794-7.969-17.794-17.762v-45.957l-19.938 19.938c-6.945 6.945-18.21 6.945-25.155 0s-6.945-18.21 0-25.155l19.938-19.938h-45.957c-9.825 0-17.762-7.969-17.762-17.794s7.969-17.762 17.762-17.762h45.989l-19.938-19.938c-6.945-6.945-6.945-18.21 0-25.155s18.21-6.945 25.155 0l19.938 19.938v-45.925c0-9.825 7.969-17.794 17.794-17.794s17.762 7.969 17.762 17.794v45.957l19.938-19.938c6.945-6.945 18.21-6.945 25.155 0s6.945 18.21 0 25.155l-19.938 19.938h45.957c9.825 0 17.794 7.969 17.794 17.762s-7.969 17.794-17.794 17.794zM494.262 60.343h-45.925l19.938 19.938c6.945 6.945 6.945 18.21 0 25.155s-18.21 6.945-25.155 0l-19.938-19.938v45.989c0 9.825-7.969 17.762-17.762 17.762s-17.794-7.969-17.794-17.762v-45.957l-19.938 19.938c-6.945 6.945-18.21 6.945-25.155 0s-6.945-18.21 0-25.155l19.938-19.938h-45.957c-9.825 0-17.762-7.969-17.762-17.794s7.969-17.762 17.762-17.762h45.989l-19.938-19.938c-6.945-6.945-6.945-18.21 0-25.155s18.21-6.945 25.155 0l19.938 19.938v-45.925c0-9.825 7.969-17.794 17.794-17.794s17.762 7.969 17.762 17.794v45.957l19.938-19.938c6.945-6.945 18.21-6.945 25.155 0s6.945 18.21 0 25.155l-19.938 19.938h45.957c9.825 0 17.794 7.969 17.794 17.762s-7.969 17.794-17.794 17.794z" />
<glyph unicode="&#xe96b;" glyph-name="Snow-Icon-Small" horiz-adv-x="1312" d="M477.115 954.929h119.287v-119.287h-119.287v119.287zM119.287 380.959c0 50.693 33.394 97.932 87.128 123.215l63.398 29.94 4.784 69.956c4.246 62.194 35.612 117.481 83.263 158.7v143.207c-114.439-59.564-193.71-168.015-202.233-293.829-92.451-43.596-155.595-130.598-155.595-231.16 0-144.158 129.52-260.973 289.425-260.973h69.608v119.287h-69.608c-93.814 0-170.138 63.525-170.138 141.687zM1157.699 554.867c0 141.211-124.514 255.967-279.951 260.435-42.329 48.475-98.217 86.526-162.090 110.796v-132.53c26.899-15.461 51.992-33.584 72.269-56.713l34.281-39.255 52.055-1.552c90.518-2.63 164.118-65.964 164.118-141.211v-82.598l77.307-29.053c46.828-17.584 77.053-55.699 77.053-97.077 0-26.424 0-106.867-131.548-106.867h-106.93v-119.287h106.93c138.55 0 250.835 73.283 250.835 226.154 0 94.035-63.683 174.669-154.36 208.728zM834.943 179.613h-106.93l75.627 75.627c11.628 11.628 11.628 30.669 0 42.297-11.628 11.501-30.542 11.501-42.17 0l-75.627-75.691v106.867c0 16.507-13.37 29.814-29.814 29.814s-29.814-13.307-29.814-29.814v-106.867l-75.627 75.691c-11.628 11.501-30.542 11.501-42.17 0-11.628-11.628-11.628-30.669 0-42.297l75.627-75.627h-106.93c-16.475 0-29.814-13.307-29.814-29.814 0-16.412 13.37-29.814 29.814-29.814h106.867l-75.564-75.627c-11.628-11.628-11.628-30.542 0-42.17s30.542-11.628 42.17 0l75.627 75.627v-106.93c0-16.412 13.37-29.814 29.814-29.814s29.814 13.434 29.814 29.814v106.93l75.627-75.627c11.628-11.628 30.542-11.628 42.17 0s11.628 30.542 0 42.17l-75.627 75.627h106.93c16.475 0 29.814 13.434 29.814 29.814 0 16.507-13.37 29.814-29.814 29.814z" />
<glyph unicode="&#xe96c;" glyph-name="Sound-Icon" horiz-adv-x="1664" d="M64 640.061c-35.392 0-64-24.576-64-54.848v-274.24c0-30.336 28.608-54.848 64-54.848 35.328 0 64 24.576 64 54.848v274.24c0 30.272-28.672 54.848-64 54.848zM704 512.125h128v-128h-128v128zM704.128 256.125v-156.16l-320.128 186.176v322.688l320.128 187.264v-155.968h128c0 124.608 0 218.816 0 218.816 0 64.064-28.096 101.184-72.448 101.184-18.24 0-39.232-6.336-62.208-19.648l-441.472-258.24v-469.76l441.472-256.768c22.976-13.248 43.968-19.584 62.272-19.584 44.288 0 72.384 37.12 72.384 101.056 0 0 0 94.208 0 218.816 0 0.064 0 0.064 0 0.128h-128zM1431.872-64.131c144.576 137.088 232.128 314.24 232.128 512.576 0 197.824-88.64 374.592-232.64 511.68l-67.968-69.504c126.72-116.48 207.040-271.744 207.040-442.176 0-170.176-80.064-325.184-206.528-441.664l67.968-70.912zM1248 77.117c112.384 96.704 180.16 225.344 180.16 371.328 0 143.296-68.224 273.536-177.088 369.792l-60.544-73.344c89.856-76.032 146.88-180.736 146.88-296.512 0-118.080-59.264-224.704-152.384-300.992l62.976-70.272zM1075.84 229.501c71.36 53.824 116.16 132.032 116.16 219.008 0 88.128-46.080 167.232-119.040 221.12l-48.32-82.944c46.208-33.344 75.52-82.816 75.52-138.048 0-60.864-16.384-115.968-70.912-148.928l46.592-70.208z" />
<glyph unicode="&#xe96d;" glyph-name="Speech-Balloon-Icon" horiz-adv-x="1120" d="M1018.204 957.102h-916.384c-56.256 0-101.82-45.628-101.82-101.82v-509.102c0-56.192 45.628-101.82 101.82-101.82 0 0 19.091 0 50.91 0v101.82h-50.91v509.102h916.384v-610.923c56.192 0 101.82 45.628 101.82 101.82v509.102c0 56.192-45.628 101.82-101.82 101.82zM661.833 244.359h50.91v101.82h-50.91v-101.82zM814.564 244.359h101.82v101.82h-101.82v-101.82zM865.474 753.461h-661.833v-101.82h661.833v101.82zM203.641 448h407.282v101.82h-407.282v-101.82zM560.012 346.18l-305.461-210.832v210.832h-101.82v-407.282l407.282 305.461h101.82v101.82z" />
<glyph unicode="&#xe96e;" glyph-name="Star-Icon" d="M767.678 89.706h102.3v-102.3h-102.3v102.3zM1018.665 578.253c-8.791 26.406-31.457 45.715-58.727 49.935l-265.629 40.92-115.439 248.174c-12.116 26.087-38.171 42.71-66.815 42.71-28.548 0-54.571-16.688-66.687-42.71l-115.503-248.174-265.629-40.92c-27.301-4.188-49.967-23.529-58.759-49.935-8.791-26.438-2.142-55.594 17.135-75.446l194.626-201.339-45.172-279.119c-4.54-28.133 7.225-56.329 30.274-72.793 12.692-8.951 27.557-13.555 42.455-13.555 12.276 0 24.488 3.133 35.645 9.303l231.55 129.058 152.427-84.909v117.070l-152.427 84.973-229.664-128.035 44.053 272.278-35.613 36.892-157.35 162.721 266.076 40.984 23.113 49.616 89.449 192.26 112.53-241.876 266.172-41.016-193.027-199.581 23.433-144.819h103.643l-17.903 110.548 194.722 201.339c19.181 19.885 25.767 49.040 16.975 75.51z" />
<glyph unicode="&#xe96f;" glyph-name="Stats-Icon" d="M744.736 634.176h-93.088v-39.552l-123.936-402.848-24.48 163.2h-94.112l56.352-375.84v-43.104h93.088v39.552l138.016 448.48 48.16-168.672v-40.064h93.088v93.088l-93.088 285.824v39.968zM461.312 634.176l-42.4 282.752v43.040h-93.088v-39.456l-186.176-565.536h-139.648v-93.184h232.736v46.56l123.936 395.872 15.68-70.048h88.96zM930.912 308.352v-93.088h93.088v93.088h-93.088zM465.44 541.088h-93.088v-93.056h93.088v93.056z" />
<glyph unicode="&#xe970;" glyph-name="Status-Icon" horiz-adv-x="1152" d="M1036.825 966.414h-921.608c-63.603 0-115.217-51.614-115.217-115.25v-691.174h115.152v-0.13h921.608v115.25h-921.576v576.021h921.608v-806.423h-806.423v-115.217h806.423c63.603 0 115.217 51.614 115.217 115.217v806.423c0 63.635-51.614 115.25-115.217 115.25zM0-70.476h115.217v115.217h-115.217v-115.217zM230.337 735.947v-115.25h345.619v115.25h-345.619zM230.337 390.328h691.206v115.217h-691.206v-115.217z" />
<glyph unicode="&#xe971;" glyph-name="Storm-Icon" horiz-adv-x="1152" d="M448.273 960.056h85.353v-85.353h-85.353v85.353zM320.035 298.608h-65.191c-93.482 0-169.522 66.407-169.522 148.048 0 53.926 33.892 103.659 88.49 129.774l44.997 21.538 3.328 49.765c5.729 85.545 61.415 158.513 140.783 197.237v92.586c-126.19-45.285-217.272-154.417-225.913-284.095-81.385-38.948-137.007-116.845-137.007-206.774 0-128.91 114.092-233.401 254.844-233.401h65.191v85.353zM1019.471 602.225c0 126.35-109.676 228.921-246.523 232.985-39.78 46.245-92.906 82.217-154.001 103.499v-92.010c34.212-16.13 64.775-38.66 89.322-67.175l24.547-28.515 37.604-1.12c91.818-2.72 163.698-67.559 163.698-147.696v-58.79l54.886-20.962c49.253-18.786 81.033-60.775 81.033-106.956 0-96.618-73.704-116.909-135.567-116.909h-80.873v-85.353h80.873c121.997 0 217.592 64.679 217.592 201.366 0.032 84.137-52.838 157.105-132.622 187.572zM686.923 388.122h-69.768l61.543 166.578-205.174-217.464h69.768l-61.543-166.578 205.174 217.464zM793.59 190.436h-55.782l49.253 129.582-164.114-169.138h55.782l-49.253-129.55 164.114 169.138zM445.648 234.665l-164.114-169.138h55.814l-49.253-129.582 164.114 169.138h-55.782l49.221 129.582z" />
<glyph unicode="&#xe972;" glyph-name="Storms-Icon-Small" horiz-adv-x="1120" d="M407.282 957.102h101.82v-101.82h-101.82v101.82zM101.82 467.155c0 43.274 28.51 83.588 74.393 105.193l54.124 25.551 4.073 59.724c3.627 53.106 30.387 100.293 71.083 135.485v122.248c-97.684-50.847-165.363-143.408-172.649-250.828-78.911-37.228-132.812-111.493-132.812-197.341 0-123.044 110.571-222.796 247.074-222.796h59.406v101.82h-59.406c-80.088 0-145.253 54.219-145.253 120.975zM988.263 615.59c0 120.562-106.307 218.5-238.96 222.319-36.146 41.396-83.843 73.883-138.38 94.598v-113.116c22.973-13.173 44.387-28.669 61.697-48.428l29.273-33.505 44.451-1.336c77.288-2.227 140.099-56.319 140.099-120.562v-70.511l65.992-24.787c39.965-15.019 65.77-47.537 65.77-82.888 0-22.56 0-91.225-112.321-91.225h-91.288v-101.82h91.288c118.271 0 214.141 62.556 214.141 193.045 0 80.279-54.378 149.103-131.762 178.186zM721.398 600.794l-342.626-374.795h116.489l-102.775-287.070 342.626 374.795h-116.521l102.839 287.070z" />
<glyph unicode="&#xe973;" glyph-name="Strong-Winds-Icon" horiz-adv-x="1504" d="M1325.581 295.048c-98.558 0-1223.613 0-1223.613 0v-101.968h1223.613c42.157 0 76.476-34.319 76.476-76.476s-34.319-76.476-76.476-76.476c-28.87 0-54.999 15.996-68.223 41.839-0.032 0.064-0.064 0.096-0.064 0.159l-89.732-48.212c29.826-56.911 89.349-95.754 158.018-95.754 98.558 0 178.444 79.885 178.444 178.444s-79.885 178.444-178.444 178.444zM1325.581 957.839c-68.669 0-128.193-38.843-157.986-95.754l89.732-48.212c0.032 0.064 0.064 0.096 0.064 0.159 13.192 25.811 39.321 41.839 68.191 41.839 42.157 0 76.476-34.319 76.476-76.476s-34.319-76.476-76.476-76.476h-1121.646v-101.968c279.264 0 1041.314 0 1121.646 0 98.558 0 178.444 79.885 178.444 178.444s-79.885 178.444-178.444 178.444zM0 397.016h203.936v101.968h-203.936v-101.968zM305.903 397.016h101.968v101.968h-101.968v-101.968zM509.839 498.984v-101.968h866.726v101.968h-866.726z" />
<glyph unicode="&#xe974;" glyph-name="Subscriptions-Icon" d="M409.6 140.8c0-56.512 45.888-102.4 102.4-102.4s102.4 45.888 102.4 102.4h102.4c0-113.088-91.712-204.8-204.8-204.8s-204.8 91.712-204.8 204.8h102.4zM870.4 448v153.6c0 142.912-83.808 265.888-204.8 323.424v-119.968c61.792-46.752 102.4-120.16 102.4-203.456v-256h102.4c28.256 0 51.2-22.944 51.2-51.2s-22.944-51.2-51.2-51.2h-716.8c-28.224 0-51.2 22.944-51.2 51.2s22.976 51.2 51.2 51.2h102.4v256c0 83.296 40.608 156.736 102.4 203.52v119.904c-120.992-57.536-204.8-180.544-204.8-323.424v-153.6c-84.832 0-153.6-68.768-153.6-153.6s68.768-153.6 153.6-153.6h716.8c84.832 0 153.6 68.768 153.6 153.6s-68.768 153.6-153.6 153.6zM460.8 960h102.4v-102.4h-102.4v102.4z" />
<glyph unicode="&#xe975;" glyph-name="Sunny-Icon" d="M512 732.448c-116.608 0-216.704-70.24-260.64-170.656h85.92c37.216 57.056 101.504 94.816 174.72 94.816 115.2 0 208.608-93.408 208.608-208.608s-93.408-208.608-208.608-208.608c-73.184 0-137.472 37.76-174.72 94.816h-85.92c43.904-100.416 144-170.656 260.64-170.656 157.088 0 284.448 127.36 284.448 284.448s-127.36 284.448-284.448 284.448zM303.392 410.080v75.84h-75.84v-75.84h75.84zM512 770.368c20.928 0 37.92 16.992 37.92 37.92v113.792c0 20.928-16.992 37.92-37.92 37.92s-37.92-16.992-37.92-37.92v-113.792c0-20.928 16.992-37.92 37.92-37.92zM512 125.632c-20.928 0-37.92-16.992-37.92-37.92v-113.792c0-20.928 16.992-37.92 37.92-37.92s37.92 16.992 37.92 37.92v113.792c0 20.928-16.992 37.92-37.92 37.92zM986.080 485.92h-113.792c-20.928 0-37.92-16.992-37.92-37.92s16.992-37.92 37.92-37.92h113.792c20.928 0 37.92 16.992 37.92 37.92s-16.992 37.92-37.92 37.92zM189.632 448c0 20.928-16.992 37.92-37.92 37.92h-113.792c-20.928 0-37.92-16.992-37.92-37.92s16.992-37.92 37.92-37.92h113.792c20.928 0 37.92 16.992 37.92 37.92zM793.6 675.968l80.448 80.448c14.816 14.816 14.816 38.816 0 53.632s-38.816 14.816-53.632 0l-80.448-80.448c-14.784-14.816-14.784-38.848 0-53.632s38.816-14.816 53.632 0zM230.4 220.032l-80.448-80.448c-14.816-14.784-14.816-38.816 0-53.632s38.848-14.816 53.632 0l80.448 80.448c14.816 14.784 14.816 38.816 0 53.632s-38.816 14.816-53.632 0zM793.6 220.032c-14.816 14.816-38.848 14.816-53.632 0s-14.784-38.848 0-53.632l80.448-80.448c14.816-14.816 38.816-14.816 53.632 0s14.816 38.848 0 53.632l-80.448 80.448zM230.4 675.968c14.816-14.816 38.848-14.816 53.632 0s14.816 38.816 0 53.632l-80.448 80.448c-14.816 14.816-38.816 14.816-53.632 0s-14.816-38.816 0-53.632l80.448-80.448z" />
<glyph unicode="&#xe976;" glyph-name="Tag---Mention-Icon" d="M716.762 703.969c28.259 0 51.206-22.979 51.206-51.206s-22.947-51.206-51.206-51.206-51.206 22.979-51.206 51.206 22.947 51.206 51.206 51.206zM716.762 806.381c-84.81 0-153.619-68.776-153.619-153.619s68.808-153.619 153.619-153.619 153.619 68.776 153.619 153.619-68.808 153.619-153.619 153.619v0zM921.587 960h102.413v-102.413h-102.413v102.413zM921.587 755.175v-225.115l-449.399-449.143-327.464 327.912 448.119 448.727h226.332v102.413h-268.321l-550.883-551.235 472.282-472.794 551.747 551.683v267.489z" />
<glyph unicode="&#xe977;" glyph-name="three-dots-icon" d="M204.801 448.001c0-56.554-45.846-102.401-102.401-102.401s-102.401 45.846-102.401 102.401c0 56.554 45.846 102.401 102.401 102.401s102.401-45.846 102.401-102.401zM614.4 448.001c0-56.554-45.846-102.401-102.401-102.401s-102.401 45.846-102.401 102.401c0 56.554 45.846 102.401 102.401 102.401s102.401-45.846 102.401-102.401zM1024 448.001c0-56.554-45.846-102.401-102.401-102.401s-102.401 45.846-102.401 102.401c0 56.554 45.846 102.401 102.401 102.401s102.401-45.846 102.401-102.401z" />
<glyph unicode="&#xe978;" glyph-name="Thunder-Icon" horiz-adv-x="832" d="M825.575 601.664h-256l204.8 358.336-597.408-0.16-170.592-563.104h153.536l-51.136-460.736 153.6 142.656v157.248l-51.2-43.872 51.2 307.264h-102.4l102.4 358.4h307.2l-153.6-358.4h153.6v-135.36l256 237.76zM364.775 243.2h102.4v102.4h-102.4v-102.4z" />
<glyph unicode="&#xe979;" glyph-name="Topics-Started---Paper-Icon" d="M870.4 345.664v307.040h-204.8v204.8h-512v-204.704h-102.4v307.104h716.8v-204.8h102.4v102.496h-102.4v102.4h204.8v-614.336h-102.4zM153.6 447.904h-102.4v102.4h102.4v-102.4zM768 140.736h-512v102.4h512v-102.4zM256 652.736h307.2v-102.4h-307.2v102.4zM768 345.504h-512v102.4h512v-102.4zM153.6 38.336h716.8v307.2h102.4v-307.2c0-56.512-45.888-102.336-102.4-102.336h-716.8c-56.512 0-102.4 45.824-102.4 102.336v307.296h102.4v-307.296z" />
</font>
</defs>
</svg>
